<?xml version="1.0" encoding="utf-8" standalone="no"?>
<!DOCTYPE svg PUBLIC "-//W3C//DTD SVG 1.1//EN"
  "http://www.w3.org/Graphics/SVG/1.1/DTD/svg11.dtd">
<svg height="1800pt" version="1.1" viewBox="0 0 3240 1800" width="3240pt" xmlns="http://www.w3.org/2000/svg" xmlns:xlink="http://www.w3.org/1999/xlink">
 <metadata>
  <rdf:RDF xmlns:cc="http://creativecommons.org/ns#" xmlns:dc="http://purl.org/dc/elements/1.1/" xmlns:rdf="http://www.w3.org/1999/02/22-rdf-syntax-ns#">
   <cc:Work>
    <dc:type rdf:resource="http://purl.org/dc/dcmitype/StillImage"/>
    <dc:date>2021-08-10T13:04:16.541341</dc:date>
    <dc:format>image/svg+xml</dc:format>
    <dc:creator>
     <cc:Agent>
      <dc:title>Matplotlib v3.4.2, https://matplotlib.org/</dc:title>
     </cc:Agent>
    </dc:creator>
   </cc:Work>
  </rdf:RDF>
 </metadata>
 <defs>
  <style type="text/css">*{stroke-linecap:butt;stroke-linejoin:round;}</style>
 </defs>
 <g id="figure_1">
  <g id="patch_1">
   <path d="M 0 1800 
L 3240 1800 
L 3240 0 
L 0 0 
z
" style="fill:#ffffff;"/>
  </g>
  <g id="axes_1">
   <g id="patch_2">
    <path d="M 405 1602 
L 2916 1602 
L 2916 216 
L 405 216 
z
" style="fill:#ffffff;"/>
   </g>
   <g id="patch_3">
    <path clip-path="url(#p741ba03ce9)" d="M 519.136364 1602 
L 557.181818 1602 
L 557.181818 1478.25 
L 519.136364 1478.25 
z
" style="fill:#ff0000;"/>
   </g>
   <g id="patch_4">
    <path clip-path="url(#p741ba03ce9)" d="M 557.181818 1602 
L 595.227273 1602 
L 595.227273 1602 
L 557.181818 1602 
z
" style="fill:#ff0000;"/>
   </g>
   <g id="patch_5">
    <path clip-path="url(#p741ba03ce9)" d="M 595.227273 1602 
L 633.272727 1602 
L 633.272727 1313.25 
L 595.227273 1313.25 
z
" style="fill:#ff0000;"/>
   </g>
   <g id="patch_6">
    <path clip-path="url(#p741ba03ce9)" d="M 633.272727 1602 
L 671.318182 1602 
L 671.318182 1602 
L 633.272727 1602 
z
" style="fill:#ff0000;"/>
   </g>
   <g id="patch_7">
    <path clip-path="url(#p741ba03ce9)" d="M 671.318182 1602 
L 709.363636 1602 
L 709.363636 1602 
L 671.318182 1602 
z
" style="fill:#ff0000;"/>
   </g>
   <g id="patch_8">
    <path clip-path="url(#p741ba03ce9)" d="M 709.363636 1602 
L 747.409091 1602 
L 747.409091 1272 
L 709.363636 1272 
z
" style="fill:#ff0000;"/>
   </g>
   <g id="patch_9">
    <path clip-path="url(#p741ba03ce9)" d="M 747.409091 1602 
L 785.454545 1602 
L 785.454545 1602 
L 747.409091 1602 
z
" style="fill:#ff0000;"/>
   </g>
   <g id="patch_10">
    <path clip-path="url(#p741ba03ce9)" d="M 785.454545 1602 
L 823.5 1602 
L 823.5 1602 
L 785.454545 1602 
z
" style="fill:#ff0000;"/>
   </g>
   <g id="patch_11">
    <path clip-path="url(#p741ba03ce9)" d="M 823.5 1602 
L 861.545455 1602 
L 861.545455 1478.25 
L 823.5 1478.25 
z
" style="fill:#ff0000;"/>
   </g>
   <g id="patch_12">
    <path clip-path="url(#p741ba03ce9)" d="M 861.545455 1602 
L 899.590909 1602 
L 899.590909 1602 
L 861.545455 1602 
z
" style="fill:#ff0000;"/>
   </g>
   <g id="patch_13">
    <path clip-path="url(#p741ba03ce9)" d="M 899.590909 1602 
L 937.636364 1602 
L 937.636364 1602 
L 899.590909 1602 
z
" style="fill:#ff0000;"/>
   </g>
   <g id="patch_14">
    <path clip-path="url(#p741ba03ce9)" d="M 937.636364 1602 
L 975.681818 1602 
L 975.681818 1230.75 
L 937.636364 1230.75 
z
" style="fill:#ff0000;"/>
   </g>
   <g id="patch_15">
    <path clip-path="url(#p741ba03ce9)" d="M 975.681818 1602 
L 1013.727273 1602 
L 1013.727273 1602 
L 975.681818 1602 
z
" style="fill:#ff0000;"/>
   </g>
   <g id="patch_16">
    <path clip-path="url(#p741ba03ce9)" d="M 1013.727273 1602 
L 1051.772727 1602 
L 1051.772727 1602 
L 1013.727273 1602 
z
" style="fill:#ff0000;"/>
   </g>
   <g id="patch_17">
    <path clip-path="url(#p741ba03ce9)" d="M 1051.772727 1602 
L 1089.818182 1602 
L 1089.818182 1065.75 
L 1051.772727 1065.75 
z
" style="fill:#ff0000;"/>
   </g>
   <g id="patch_18">
    <path clip-path="url(#p741ba03ce9)" d="M 1089.818182 1602 
L 1127.863636 1602 
L 1127.863636 1602 
L 1089.818182 1602 
z
" style="fill:#ff0000;"/>
   </g>
   <g id="patch_19">
    <path clip-path="url(#p741ba03ce9)" d="M 1127.863636 1602 
L 1165.909091 1602 
L 1165.909091 1602 
L 1127.863636 1602 
z
" style="fill:#ff0000;"/>
   </g>
   <g id="patch_20">
    <path clip-path="url(#p741ba03ce9)" d="M 1165.909091 1602 
L 1203.954545 1602 
L 1203.954545 1437 
L 1165.909091 1437 
z
" style="fill:#ff0000;"/>
   </g>
   <g id="patch_21">
    <path clip-path="url(#p741ba03ce9)" d="M 1203.954545 1602 
L 1242 1602 
L 1242 1602 
L 1203.954545 1602 
z
" style="fill:#ff0000;"/>
   </g>
   <g id="patch_22">
    <path clip-path="url(#p741ba03ce9)" d="M 1242 1602 
L 1280.045455 1602 
L 1280.045455 1602 
L 1242 1602 
z
" style="fill:#ff0000;"/>
   </g>
   <g id="patch_23">
    <path clip-path="url(#p741ba03ce9)" d="M 1280.045455 1602 
L 1318.090909 1602 
L 1318.090909 1478.25 
L 1280.045455 1478.25 
z
" style="fill:#ff0000;"/>
   </g>
   <g id="patch_24">
    <path clip-path="url(#p741ba03ce9)" d="M 1318.090909 1602 
L 1356.136364 1602 
L 1356.136364 1602 
L 1318.090909 1602 
z
" style="fill:#ff0000;"/>
   </g>
   <g id="patch_25">
    <path clip-path="url(#p741ba03ce9)" d="M 1356.136364 1602 
L 1394.181818 1602 
L 1394.181818 900.75 
L 1356.136364 900.75 
z
" style="fill:#ff0000;"/>
   </g>
   <g id="patch_26">
    <path clip-path="url(#p741ba03ce9)" d="M 1394.181818 1602 
L 1432.227273 1602 
L 1432.227273 1602 
L 1394.181818 1602 
z
" style="fill:#ff0000;"/>
   </g>
   <g id="patch_27">
    <path clip-path="url(#p741ba03ce9)" d="M 1432.227273 1602 
L 1470.272727 1602 
L 1470.272727 1602 
L 1432.227273 1602 
z
" style="fill:#ff0000;"/>
   </g>
   <g id="patch_28">
    <path clip-path="url(#p741ba03ce9)" d="M 1470.272727 1602 
L 1508.318182 1602 
L 1508.318182 1272 
L 1470.272727 1272 
z
" style="fill:#ff0000;"/>
   </g>
   <g id="patch_29">
    <path clip-path="url(#p741ba03ce9)" d="M 1508.318182 1602 
L 1546.363636 1602 
L 1546.363636 1602 
L 1508.318182 1602 
z
" style="fill:#ff0000;"/>
   </g>
   <g id="patch_30">
    <path clip-path="url(#p741ba03ce9)" d="M 1546.363636 1602 
L 1584.409091 1602 
L 1584.409091 1602 
L 1546.363636 1602 
z
" style="fill:#ff0000;"/>
   </g>
   <g id="patch_31">
    <path clip-path="url(#p741ba03ce9)" d="M 1584.409091 1602 
L 1622.454545 1602 
L 1622.454545 1560.75 
L 1584.409091 1560.75 
z
" style="fill:#ff0000;"/>
   </g>
   <g id="patch_32">
    <path clip-path="url(#p741ba03ce9)" d="M 1622.454545 1602 
L 1660.5 1602 
L 1660.5 1602 
L 1622.454545 1602 
z
" style="fill:#ff0000;"/>
   </g>
   <g id="patch_33">
    <path clip-path="url(#p741ba03ce9)" d="M 1660.5 1602 
L 1698.545455 1602 
L 1698.545455 1602 
L 1660.5 1602 
z
" style="fill:#ff0000;"/>
   </g>
   <g id="patch_34">
    <path clip-path="url(#p741ba03ce9)" d="M 1698.545455 1602 
L 1736.590909 1602 
L 1736.590909 1065.75 
L 1698.545455 1065.75 
z
" style="fill:#ff0000;"/>
   </g>
   <g id="patch_35">
    <path clip-path="url(#p741ba03ce9)" d="M 1736.590909 1602 
L 1774.636364 1602 
L 1774.636364 1602 
L 1736.590909 1602 
z
" style="fill:#ff0000;"/>
   </g>
   <g id="patch_36">
    <path clip-path="url(#p741ba03ce9)" d="M 1774.636364 1602 
L 1812.681818 1602 
L 1812.681818 1602 
L 1774.636364 1602 
z
" style="fill:#ff0000;"/>
   </g>
   <g id="patch_37">
    <path clip-path="url(#p741ba03ce9)" d="M 1812.681818 1602 
L 1850.727273 1602 
L 1850.727273 859.5 
L 1812.681818 859.5 
z
" style="fill:#ff0000;"/>
   </g>
   <g id="patch_38">
    <path clip-path="url(#p741ba03ce9)" d="M 1850.727273 1602 
L 1888.772727 1602 
L 1888.772727 1602 
L 1850.727273 1602 
z
" style="fill:#ff0000;"/>
   </g>
   <g id="patch_39">
    <path clip-path="url(#p741ba03ce9)" d="M 1888.772727 1602 
L 1926.818182 1602 
L 1926.818182 1602 
L 1888.772727 1602 
z
" style="fill:#ff0000;"/>
   </g>
   <g id="patch_40">
    <path clip-path="url(#p741ba03ce9)" d="M 1926.818182 1602 
L 1964.863636 1602 
L 1964.863636 1148.25 
L 1926.818182 1148.25 
z
" style="fill:#ff0000;"/>
   </g>
   <g id="patch_41">
    <path clip-path="url(#p741ba03ce9)" d="M 1964.863636 1602 
L 2002.909091 1602 
L 2002.909091 1602 
L 1964.863636 1602 
z
" style="fill:#ff0000;"/>
   </g>
   <g id="patch_42">
    <path clip-path="url(#p741ba03ce9)" d="M 2002.909091 1602 
L 2040.954545 1602 
L 2040.954545 1602 
L 2002.909091 1602 
z
" style="fill:#ff0000;"/>
   </g>
   <g id="patch_43">
    <path clip-path="url(#p741ba03ce9)" d="M 2040.954545 1602 
L 2079 1602 
L 2079 1313.25 
L 2040.954545 1313.25 
z
" style="fill:#ff0000;"/>
   </g>
   <g id="patch_44">
    <path clip-path="url(#p741ba03ce9)" d="M 2079 1602 
L 2117.045455 1602 
L 2117.045455 1602 
L 2079 1602 
z
" style="fill:#ff0000;"/>
   </g>
   <g id="patch_45">
    <path clip-path="url(#p741ba03ce9)" d="M 2117.045455 1602 
L 2155.090909 1602 
L 2155.090909 1395.75 
L 2117.045455 1395.75 
z
" style="fill:#ff0000;"/>
   </g>
   <g id="patch_46">
    <path clip-path="url(#p741ba03ce9)" d="M 2155.090909 1602 
L 2193.136364 1602 
L 2193.136364 1602 
L 2155.090909 1602 
z
" style="fill:#ff0000;"/>
   </g>
   <g id="patch_47">
    <path clip-path="url(#p741ba03ce9)" d="M 2193.136364 1602 
L 2231.181818 1602 
L 2231.181818 1602 
L 2193.136364 1602 
z
" style="fill:#ff0000;"/>
   </g>
   <g id="patch_48">
    <path clip-path="url(#p741ba03ce9)" d="M 2231.181818 1602 
L 2269.227273 1602 
L 2269.227273 1519.5 
L 2231.181818 1519.5 
z
" style="fill:#ff0000;"/>
   </g>
   <g id="patch_49">
    <path clip-path="url(#p741ba03ce9)" d="M 2269.227273 1602 
L 2307.272727 1602 
L 2307.272727 1602 
L 2269.227273 1602 
z
" style="fill:#ff0000;"/>
   </g>
   <g id="patch_50">
    <path clip-path="url(#p741ba03ce9)" d="M 2307.272727 1602 
L 2345.318182 1602 
L 2345.318182 1602 
L 2307.272727 1602 
z
" style="fill:#ff0000;"/>
   </g>
   <g id="patch_51">
    <path clip-path="url(#p741ba03ce9)" d="M 2345.318182 1602 
L 2383.363636 1602 
L 2383.363636 1354.5 
L 2345.318182 1354.5 
z
" style="fill:#ff0000;"/>
   </g>
   <g id="patch_52">
    <path clip-path="url(#p741ba03ce9)" d="M 2383.363636 1602 
L 2421.409091 1602 
L 2421.409091 1602 
L 2383.363636 1602 
z
" style="fill:#ff0000;"/>
   </g>
   <g id="patch_53">
    <path clip-path="url(#p741ba03ce9)" d="M 2421.409091 1602 
L 2459.454545 1602 
L 2459.454545 1602 
L 2421.409091 1602 
z
" style="fill:#ff0000;"/>
   </g>
   <g id="patch_54">
    <path clip-path="url(#p741ba03ce9)" d="M 2459.454545 1602 
L 2497.5 1602 
L 2497.5 1107 
L 2459.454545 1107 
z
" style="fill:#ff0000;"/>
   </g>
   <g id="patch_55">
    <path clip-path="url(#p741ba03ce9)" d="M 2497.5 1602 
L 2535.545455 1602 
L 2535.545455 1602 
L 2497.5 1602 
z
" style="fill:#ff0000;"/>
   </g>
   <g id="patch_56">
    <path clip-path="url(#p741ba03ce9)" d="M 2535.545455 1602 
L 2573.590909 1602 
L 2573.590909 1602 
L 2535.545455 1602 
z
" style="fill:#ff0000;"/>
   </g>
   <g id="patch_57">
    <path clip-path="url(#p741ba03ce9)" d="M 2573.590909 1602 
L 2611.636364 1602 
L 2611.636364 282 
L 2573.590909 282 
z
" style="fill:#ff0000;"/>
   </g>
   <g id="patch_58">
    <path clip-path="url(#p741ba03ce9)" d="M 2611.636364 1602 
L 2649.681818 1602 
L 2649.681818 1602 
L 2611.636364 1602 
z
" style="fill:#ff0000;"/>
   </g>
   <g id="patch_59">
    <path clip-path="url(#p741ba03ce9)" d="M 2649.681818 1602 
L 2687.727273 1602 
L 2687.727273 1602 
L 2649.681818 1602 
z
" style="fill:#ff0000;"/>
   </g>
   <g id="patch_60">
    <path clip-path="url(#p741ba03ce9)" d="M 2687.727273 1602 
L 2725.772727 1602 
L 2725.772727 1107 
L 2687.727273 1107 
z
" style="fill:#ff0000;"/>
   </g>
   <g id="patch_61">
    <path clip-path="url(#p741ba03ce9)" d="M 2725.772727 1602 
L 2763.818182 1602 
L 2763.818182 1602 
L 2725.772727 1602 
z
" style="fill:#ff0000;"/>
   </g>
   <g id="patch_62">
    <path clip-path="url(#p741ba03ce9)" d="M 2763.818182 1602 
L 2801.863636 1602 
L 2801.863636 1148.25 
L 2763.818182 1148.25 
z
" style="fill:#ff0000;"/>
   </g>
   <g id="patch_63">
    <path clip-path="url(#p741ba03ce9)" d="M 519.136364 1602 
L 555.37013 1602 
L 555.37013 1560.75 
L 519.136364 1560.75 
z
" style="fill:#800080;"/>
   </g>
   <g id="patch_64">
    <path clip-path="url(#p741ba03ce9)" d="M 555.37013 1602 
L 591.603896 1602 
L 591.603896 1602 
L 555.37013 1602 
z
" style="fill:#800080;"/>
   </g>
   <g id="patch_65">
    <path clip-path="url(#p741ba03ce9)" d="M 591.603896 1602 
L 627.837662 1602 
L 627.837662 1602 
L 591.603896 1602 
z
" style="fill:#800080;"/>
   </g>
   <g id="patch_66">
    <path clip-path="url(#p741ba03ce9)" d="M 627.837662 1602 
L 664.071429 1602 
L 664.071429 1560.75 
L 627.837662 1560.75 
z
" style="fill:#800080;"/>
   </g>
   <g id="patch_67">
    <path clip-path="url(#p741ba03ce9)" d="M 664.071429 1602 
L 700.305195 1602 
L 700.305195 1602 
L 664.071429 1602 
z
" style="fill:#800080;"/>
   </g>
   <g id="patch_68">
    <path clip-path="url(#p741ba03ce9)" d="M 700.305195 1602 
L 736.538961 1602 
L 736.538961 1602 
L 700.305195 1602 
z
" style="fill:#800080;"/>
   </g>
   <g id="patch_69">
    <path clip-path="url(#p741ba03ce9)" d="M 736.538961 1602 
L 772.772727 1602 
L 772.772727 1602 
L 736.538961 1602 
z
" style="fill:#800080;"/>
   </g>
   <g id="patch_70">
    <path clip-path="url(#p741ba03ce9)" d="M 772.772727 1602 
L 809.006494 1602 
L 809.006494 1602 
L 772.772727 1602 
z
" style="fill:#800080;"/>
   </g>
   <g id="patch_71">
    <path clip-path="url(#p741ba03ce9)" d="M 809.006494 1602 
L 845.24026 1602 
L 845.24026 1602 
L 809.006494 1602 
z
" style="fill:#800080;"/>
   </g>
   <g id="patch_72">
    <path clip-path="url(#p741ba03ce9)" d="M 845.24026 1602 
L 881.474026 1602 
L 881.474026 1519.5 
L 845.24026 1519.5 
z
" style="fill:#800080;"/>
   </g>
   <g id="patch_73">
    <path clip-path="url(#p741ba03ce9)" d="M 881.474026 1602 
L 917.707792 1602 
L 917.707792 1602 
L 881.474026 1602 
z
" style="fill:#800080;"/>
   </g>
   <g id="patch_74">
    <path clip-path="url(#p741ba03ce9)" d="M 917.707792 1602 
L 953.941558 1602 
L 953.941558 1602 
L 917.707792 1602 
z
" style="fill:#800080;"/>
   </g>
   <g id="patch_75">
    <path clip-path="url(#p741ba03ce9)" d="M 953.941558 1602 
L 990.175325 1602 
L 990.175325 1395.75 
L 953.941558 1395.75 
z
" style="fill:#800080;"/>
   </g>
   <g id="patch_76">
    <path clip-path="url(#p741ba03ce9)" d="M 990.175325 1602 
L 1026.409091 1602 
L 1026.409091 1602 
L 990.175325 1602 
z
" style="fill:#800080;"/>
   </g>
   <g id="patch_77">
    <path clip-path="url(#p741ba03ce9)" d="M 1026.409091 1602 
L 1062.642857 1602 
L 1062.642857 1602 
L 1026.409091 1602 
z
" style="fill:#800080;"/>
   </g>
   <g id="patch_78">
    <path clip-path="url(#p741ba03ce9)" d="M 1062.642857 1602 
L 1098.876623 1602 
L 1098.876623 1313.25 
L 1062.642857 1313.25 
z
" style="fill:#800080;"/>
   </g>
   <g id="patch_79">
    <path clip-path="url(#p741ba03ce9)" d="M 1098.876623 1602 
L 1135.11039 1602 
L 1135.11039 1602 
L 1098.876623 1602 
z
" style="fill:#800080;"/>
   </g>
   <g id="patch_80">
    <path clip-path="url(#p741ba03ce9)" d="M 1135.11039 1602 
L 1171.344156 1602 
L 1171.344156 1602 
L 1135.11039 1602 
z
" style="fill:#800080;"/>
   </g>
   <g id="patch_81">
    <path clip-path="url(#p741ba03ce9)" d="M 1171.344156 1602 
L 1207.577922 1602 
L 1207.577922 1560.75 
L 1171.344156 1560.75 
z
" style="fill:#800080;"/>
   </g>
   <g id="patch_82">
    <path clip-path="url(#p741ba03ce9)" d="M 1207.577922 1602 
L 1243.811688 1602 
L 1243.811688 1602 
L 1207.577922 1602 
z
" style="fill:#800080;"/>
   </g>
   <g id="patch_83">
    <path clip-path="url(#p741ba03ce9)" d="M 1243.811688 1602 
L 1280.045455 1602 
L 1280.045455 1602 
L 1243.811688 1602 
z
" style="fill:#800080;"/>
   </g>
   <g id="patch_84">
    <path clip-path="url(#p741ba03ce9)" d="M 1280.045455 1602 
L 1316.279221 1602 
L 1316.279221 1602 
L 1280.045455 1602 
z
" style="fill:#800080;"/>
   </g>
   <g id="patch_85">
    <path clip-path="url(#p741ba03ce9)" d="M 1316.279221 1602 
L 1352.512987 1602 
L 1352.512987 1602 
L 1316.279221 1602 
z
" style="fill:#800080;"/>
   </g>
   <g id="patch_86">
    <path clip-path="url(#p741ba03ce9)" d="M 1352.512987 1602 
L 1388.746753 1602 
L 1388.746753 1602 
L 1352.512987 1602 
z
" style="fill:#800080;"/>
   </g>
   <g id="patch_87">
    <path clip-path="url(#p741ba03ce9)" d="M 1388.746753 1602 
L 1424.980519 1602 
L 1424.980519 1189.5 
L 1388.746753 1189.5 
z
" style="fill:#800080;"/>
   </g>
   <g id="patch_88">
    <path clip-path="url(#p741ba03ce9)" d="M 1424.980519 1602 
L 1461.214286 1602 
L 1461.214286 1602 
L 1424.980519 1602 
z
" style="fill:#800080;"/>
   </g>
   <g id="patch_89">
    <path clip-path="url(#p741ba03ce9)" d="M 1461.214286 1602 
L 1497.448052 1602 
L 1497.448052 1602 
L 1461.214286 1602 
z
" style="fill:#800080;"/>
   </g>
   <g id="patch_90">
    <path clip-path="url(#p741ba03ce9)" d="M 1497.448052 1602 
L 1533.681818 1602 
L 1533.681818 1602 
L 1497.448052 1602 
z
" style="fill:#800080;"/>
   </g>
   <g id="patch_91">
    <path clip-path="url(#p741ba03ce9)" d="M 1533.681818 1602 
L 1569.915584 1602 
L 1569.915584 1602 
L 1533.681818 1602 
z
" style="fill:#800080;"/>
   </g>
   <g id="patch_92">
    <path clip-path="url(#p741ba03ce9)" d="M 1569.915584 1602 
L 1606.149351 1602 
L 1606.149351 1602 
L 1569.915584 1602 
z
" style="fill:#800080;"/>
   </g>
   <g id="patch_93">
    <path clip-path="url(#p741ba03ce9)" d="M 1606.149351 1602 
L 1642.383117 1602 
L 1642.383117 1560.75 
L 1606.149351 1560.75 
z
" style="fill:#800080;"/>
   </g>
   <g id="patch_94">
    <path clip-path="url(#p741ba03ce9)" d="M 1642.383117 1602 
L 1678.616883 1602 
L 1678.616883 1602 
L 1642.383117 1602 
z
" style="fill:#800080;"/>
   </g>
   <g id="patch_95">
    <path clip-path="url(#p741ba03ce9)" d="M 1678.616883 1602 
L 1714.850649 1602 
L 1714.850649 1602 
L 1678.616883 1602 
z
" style="fill:#800080;"/>
   </g>
   <g id="patch_96">
    <path clip-path="url(#p741ba03ce9)" d="M 1714.850649 1602 
L 1751.084416 1602 
L 1751.084416 1230.75 
L 1714.850649 1230.75 
z
" style="fill:#800080;"/>
   </g>
   <g id="patch_97">
    <path clip-path="url(#p741ba03ce9)" d="M 1751.084416 1602 
L 1787.318182 1602 
L 1787.318182 1602 
L 1751.084416 1602 
z
" style="fill:#800080;"/>
   </g>
   <g id="patch_98">
    <path clip-path="url(#p741ba03ce9)" d="M 1787.318182 1602 
L 1823.551948 1602 
L 1823.551948 1602 
L 1787.318182 1602 
z
" style="fill:#800080;"/>
   </g>
   <g id="patch_99">
    <path clip-path="url(#p741ba03ce9)" d="M 1823.551948 1602 
L 1859.785714 1602 
L 1859.785714 1395.75 
L 1823.551948 1395.75 
z
" style="fill:#800080;"/>
   </g>
   <g id="patch_100">
    <path clip-path="url(#p741ba03ce9)" d="M 1859.785714 1602 
L 1896.019481 1602 
L 1896.019481 1602 
L 1859.785714 1602 
z
" style="fill:#800080;"/>
   </g>
   <g id="patch_101">
    <path clip-path="url(#p741ba03ce9)" d="M 1896.019481 1602 
L 1932.253247 1602 
L 1932.253247 1602 
L 1896.019481 1602 
z
" style="fill:#800080;"/>
   </g>
   <g id="patch_102">
    <path clip-path="url(#p741ba03ce9)" d="M 1932.253247 1602 
L 1968.487013 1602 
L 1968.487013 1602 
L 1932.253247 1602 
z
" style="fill:#800080;"/>
   </g>
   <g id="patch_103">
    <path clip-path="url(#p741ba03ce9)" d="M 1968.487013 1602 
L 2004.720779 1602 
L 2004.720779 1602 
L 1968.487013 1602 
z
" style="fill:#800080;"/>
   </g>
   <g id="patch_104">
    <path clip-path="url(#p741ba03ce9)" d="M 2004.720779 1602 
L 2040.954545 1602 
L 2040.954545 1602 
L 2004.720779 1602 
z
" style="fill:#800080;"/>
   </g>
   <g id="patch_105">
    <path clip-path="url(#p741ba03ce9)" d="M 2040.954545 1602 
L 2077.188312 1602 
L 2077.188312 1437 
L 2040.954545 1437 
z
" style="fill:#800080;"/>
   </g>
   <g id="patch_106">
    <path clip-path="url(#p741ba03ce9)" d="M 2077.188312 1602 
L 2113.422078 1602 
L 2113.422078 1602 
L 2077.188312 1602 
z
" style="fill:#800080;"/>
   </g>
   <g id="patch_107">
    <path clip-path="url(#p741ba03ce9)" d="M 2113.422078 1602 
L 2149.655844 1602 
L 2149.655844 1602 
L 2113.422078 1602 
z
" style="fill:#800080;"/>
   </g>
   <g id="patch_108">
    <path clip-path="url(#p741ba03ce9)" d="M 2149.655844 1602 
L 2185.88961 1602 
L 2185.88961 1519.5 
L 2149.655844 1519.5 
z
" style="fill:#800080;"/>
   </g>
   <g id="patch_109">
    <path clip-path="url(#p741ba03ce9)" d="M 2185.88961 1602 
L 2222.123377 1602 
L 2222.123377 1602 
L 2185.88961 1602 
z
" style="fill:#800080;"/>
   </g>
   <g id="patch_110">
    <path clip-path="url(#p741ba03ce9)" d="M 2222.123377 1602 
L 2258.357143 1602 
L 2258.357143 1602 
L 2222.123377 1602 
z
" style="fill:#800080;"/>
   </g>
   <g id="patch_111">
    <path clip-path="url(#p741ba03ce9)" d="M 2258.357143 1602 
L 2294.590909 1602 
L 2294.590909 1560.75 
L 2258.357143 1560.75 
z
" style="fill:#800080;"/>
   </g>
   <g id="patch_112">
    <path clip-path="url(#p741ba03ce9)" d="M 2294.590909 1602 
L 2330.824675 1602 
L 2330.824675 1602 
L 2294.590909 1602 
z
" style="fill:#800080;"/>
   </g>
   <g id="patch_113">
    <path clip-path="url(#p741ba03ce9)" d="M 2330.824675 1602 
L 2367.058442 1602 
L 2367.058442 1602 
L 2330.824675 1602 
z
" style="fill:#800080;"/>
   </g>
   <g id="patch_114">
    <path clip-path="url(#p741ba03ce9)" d="M 2367.058442 1602 
L 2403.292208 1602 
L 2403.292208 1478.25 
L 2367.058442 1478.25 
z
" style="fill:#800080;"/>
   </g>
   <g id="patch_115">
    <path clip-path="url(#p741ba03ce9)" d="M 2403.292208 1602 
L 2439.525974 1602 
L 2439.525974 1602 
L 2403.292208 1602 
z
" style="fill:#800080;"/>
   </g>
   <g id="patch_116">
    <path clip-path="url(#p741ba03ce9)" d="M 2439.525974 1602 
L 2475.75974 1602 
L 2475.75974 1602 
L 2439.525974 1602 
z
" style="fill:#800080;"/>
   </g>
   <g id="patch_117">
    <path clip-path="url(#p741ba03ce9)" d="M 2475.75974 1602 
L 2511.993506 1602 
L 2511.993506 1478.25 
L 2475.75974 1478.25 
z
" style="fill:#800080;"/>
   </g>
   <g id="patch_118">
    <path clip-path="url(#p741ba03ce9)" d="M 2511.993506 1602 
L 2548.227273 1602 
L 2548.227273 1602 
L 2511.993506 1602 
z
" style="fill:#800080;"/>
   </g>
   <g id="patch_119">
    <path clip-path="url(#p741ba03ce9)" d="M 2548.227273 1602 
L 2584.461039 1602 
L 2584.461039 1602 
L 2548.227273 1602 
z
" style="fill:#800080;"/>
   </g>
   <g id="patch_120">
    <path clip-path="url(#p741ba03ce9)" d="M 2584.461039 1602 
L 2620.694805 1602 
L 2620.694805 1024.5 
L 2584.461039 1024.5 
z
" style="fill:#800080;"/>
   </g>
   <g id="patch_121">
    <path clip-path="url(#p741ba03ce9)" d="M 2620.694805 1602 
L 2656.928571 1602 
L 2656.928571 1602 
L 2620.694805 1602 
z
" style="fill:#800080;"/>
   </g>
   <g id="patch_122">
    <path clip-path="url(#p741ba03ce9)" d="M 2656.928571 1602 
L 2693.162338 1602 
L 2693.162338 1560.75 
L 2656.928571 1560.75 
z
" style="fill:#800080;"/>
   </g>
   <g id="patch_123">
    <path clip-path="url(#p741ba03ce9)" d="M 627.837662 1602 
L 664.071429 1602 
L 664.071429 1395.75 
L 627.837662 1395.75 
z
" style="fill:#00ffff;"/>
   </g>
   <g id="patch_124">
    <path clip-path="url(#p741ba03ce9)" d="M 664.071429 1602 
L 700.305195 1602 
L 700.305195 1602 
L 664.071429 1602 
z
" style="fill:#00ffff;"/>
   </g>
   <g id="patch_125">
    <path clip-path="url(#p741ba03ce9)" d="M 700.305195 1602 
L 736.538961 1602 
L 736.538961 1602 
L 700.305195 1602 
z
" style="fill:#00ffff;"/>
   </g>
   <g id="patch_126">
    <path clip-path="url(#p741ba03ce9)" d="M 736.538961 1602 
L 772.772727 1602 
L 772.772727 1272 
L 736.538961 1272 
z
" style="fill:#00ffff;"/>
   </g>
   <g id="patch_127">
    <path clip-path="url(#p741ba03ce9)" d="M 772.772727 1602 
L 809.006494 1602 
L 809.006494 1602 
L 772.772727 1602 
z
" style="fill:#00ffff;"/>
   </g>
   <g id="patch_128">
    <path clip-path="url(#p741ba03ce9)" d="M 809.006494 1602 
L 845.24026 1602 
L 845.24026 1602 
L 809.006494 1602 
z
" style="fill:#00ffff;"/>
   </g>
   <g id="patch_129">
    <path clip-path="url(#p741ba03ce9)" d="M 845.24026 1602 
L 881.474026 1602 
L 881.474026 1560.75 
L 845.24026 1560.75 
z
" style="fill:#00ffff;"/>
   </g>
   <g id="patch_130">
    <path clip-path="url(#p741ba03ce9)" d="M 881.474026 1602 
L 917.707792 1602 
L 917.707792 1602 
L 881.474026 1602 
z
" style="fill:#00ffff;"/>
   </g>
   <g id="patch_131">
    <path clip-path="url(#p741ba03ce9)" d="M 917.707792 1602 
L 953.941558 1602 
L 953.941558 1602 
L 917.707792 1602 
z
" style="fill:#00ffff;"/>
   </g>
   <g id="patch_132">
    <path clip-path="url(#p741ba03ce9)" d="M 953.941558 1602 
L 990.175325 1602 
L 990.175325 1478.25 
L 953.941558 1478.25 
z
" style="fill:#00ffff;"/>
   </g>
   <g id="patch_133">
    <path clip-path="url(#p741ba03ce9)" d="M 990.175325 1602 
L 1026.409091 1602 
L 1026.409091 1602 
L 990.175325 1602 
z
" style="fill:#00ffff;"/>
   </g>
   <g id="patch_134">
    <path clip-path="url(#p741ba03ce9)" d="M 1026.409091 1602 
L 1062.642857 1602 
L 1062.642857 1602 
L 1026.409091 1602 
z
" style="fill:#00ffff;"/>
   </g>
   <g id="patch_135">
    <path clip-path="url(#p741ba03ce9)" d="M 1062.642857 1602 
L 1098.876623 1602 
L 1098.876623 1395.75 
L 1062.642857 1395.75 
z
" style="fill:#00ffff;"/>
   </g>
   <g id="patch_136">
    <path clip-path="url(#p741ba03ce9)" d="M 1098.876623 1602 
L 1135.11039 1602 
L 1135.11039 1602 
L 1098.876623 1602 
z
" style="fill:#00ffff;"/>
   </g>
   <g id="patch_137">
    <path clip-path="url(#p741ba03ce9)" d="M 1135.11039 1602 
L 1171.344156 1602 
L 1171.344156 1602 
L 1135.11039 1602 
z
" style="fill:#00ffff;"/>
   </g>
   <g id="patch_138">
    <path clip-path="url(#p741ba03ce9)" d="M 1171.344156 1602 
L 1207.577922 1602 
L 1207.577922 1478.25 
L 1171.344156 1478.25 
z
" style="fill:#00ffff;"/>
   </g>
   <g id="patch_139">
    <path clip-path="url(#p741ba03ce9)" d="M 1207.577922 1602 
L 1243.811688 1602 
L 1243.811688 1602 
L 1207.577922 1602 
z
" style="fill:#00ffff;"/>
   </g>
   <g id="patch_140">
    <path clip-path="url(#p741ba03ce9)" d="M 1243.811688 1602 
L 1280.045455 1602 
L 1280.045455 1602 
L 1243.811688 1602 
z
" style="fill:#00ffff;"/>
   </g>
   <g id="patch_141">
    <path clip-path="url(#p741ba03ce9)" d="M 1280.045455 1602 
L 1316.279221 1602 
L 1316.279221 1478.25 
L 1280.045455 1478.25 
z
" style="fill:#00ffff;"/>
   </g>
   <g id="patch_142">
    <path clip-path="url(#p741ba03ce9)" d="M 1316.279221 1602 
L 1352.512987 1602 
L 1352.512987 1602 
L 1316.279221 1602 
z
" style="fill:#00ffff;"/>
   </g>
   <g id="patch_143">
    <path clip-path="url(#p741ba03ce9)" d="M 1352.512987 1602 
L 1388.746753 1602 
L 1388.746753 1602 
L 1352.512987 1602 
z
" style="fill:#00ffff;"/>
   </g>
   <g id="patch_144">
    <path clip-path="url(#p741ba03ce9)" d="M 1388.746753 1602 
L 1424.980519 1602 
L 1424.980519 1313.25 
L 1388.746753 1313.25 
z
" style="fill:#00ffff;"/>
   </g>
   <g id="patch_145">
    <path clip-path="url(#p741ba03ce9)" d="M 1424.980519 1602 
L 1461.214286 1602 
L 1461.214286 1602 
L 1424.980519 1602 
z
" style="fill:#00ffff;"/>
   </g>
   <g id="patch_146">
    <path clip-path="url(#p741ba03ce9)" d="M 1461.214286 1602 
L 1497.448052 1602 
L 1497.448052 1602 
L 1461.214286 1602 
z
" style="fill:#00ffff;"/>
   </g>
   <g id="patch_147">
    <path clip-path="url(#p741ba03ce9)" d="M 1497.448052 1602 
L 1533.681818 1602 
L 1533.681818 1437 
L 1497.448052 1437 
z
" style="fill:#00ffff;"/>
   </g>
   <g id="patch_148">
    <path clip-path="url(#p741ba03ce9)" d="M 1533.681818 1602 
L 1569.915584 1602 
L 1569.915584 1602 
L 1533.681818 1602 
z
" style="fill:#00ffff;"/>
   </g>
   <g id="patch_149">
    <path clip-path="url(#p741ba03ce9)" d="M 1569.915584 1602 
L 1606.149351 1602 
L 1606.149351 1602 
L 1569.915584 1602 
z
" style="fill:#00ffff;"/>
   </g>
   <g id="patch_150">
    <path clip-path="url(#p741ba03ce9)" d="M 1606.149351 1602 
L 1642.383117 1602 
L 1642.383117 1602 
L 1606.149351 1602 
z
" style="fill:#00ffff;"/>
   </g>
   <g id="patch_151">
    <path clip-path="url(#p741ba03ce9)" d="M 1642.383117 1602 
L 1678.616883 1602 
L 1678.616883 1602 
L 1642.383117 1602 
z
" style="fill:#00ffff;"/>
   </g>
   <g id="patch_152">
    <path clip-path="url(#p741ba03ce9)" d="M 1678.616883 1602 
L 1714.850649 1602 
L 1714.850649 1602 
L 1678.616883 1602 
z
" style="fill:#00ffff;"/>
   </g>
   <g id="patch_153">
    <path clip-path="url(#p741ba03ce9)" d="M 1714.850649 1602 
L 1751.084416 1602 
L 1751.084416 1437 
L 1714.850649 1437 
z
" style="fill:#00ffff;"/>
   </g>
   <g id="patch_154">
    <path clip-path="url(#p741ba03ce9)" d="M 1751.084416 1602 
L 1787.318182 1602 
L 1787.318182 1602 
L 1751.084416 1602 
z
" style="fill:#00ffff;"/>
   </g>
   <g id="patch_155">
    <path clip-path="url(#p741ba03ce9)" d="M 1787.318182 1602 
L 1823.551948 1602 
L 1823.551948 1602 
L 1787.318182 1602 
z
" style="fill:#00ffff;"/>
   </g>
   <g id="patch_156">
    <path clip-path="url(#p741ba03ce9)" d="M 1823.551948 1602 
L 1859.785714 1602 
L 1859.785714 1230.75 
L 1823.551948 1230.75 
z
" style="fill:#00ffff;"/>
   </g>
   <g id="patch_157">
    <path clip-path="url(#p741ba03ce9)" d="M 1859.785714 1602 
L 1896.019481 1602 
L 1896.019481 1602 
L 1859.785714 1602 
z
" style="fill:#00ffff;"/>
   </g>
   <g id="patch_158">
    <path clip-path="url(#p741ba03ce9)" d="M 1896.019481 1602 
L 1932.253247 1602 
L 1932.253247 1602 
L 1896.019481 1602 
z
" style="fill:#00ffff;"/>
   </g>
   <g id="patch_159">
    <path clip-path="url(#p741ba03ce9)" d="M 1932.253247 1602 
L 1968.487013 1602 
L 1968.487013 1313.25 
L 1932.253247 1313.25 
z
" style="fill:#00ffff;"/>
   </g>
   <g id="patch_160">
    <path clip-path="url(#p741ba03ce9)" d="M 1968.487013 1602 
L 2004.720779 1602 
L 2004.720779 1602 
L 1968.487013 1602 
z
" style="fill:#00ffff;"/>
   </g>
   <g id="patch_161">
    <path clip-path="url(#p741ba03ce9)" d="M 2004.720779 1602 
L 2040.954545 1602 
L 2040.954545 1602 
L 2004.720779 1602 
z
" style="fill:#00ffff;"/>
   </g>
   <g id="patch_162">
    <path clip-path="url(#p741ba03ce9)" d="M 2040.954545 1602 
L 2077.188312 1602 
L 2077.188312 1519.5 
L 2040.954545 1519.5 
z
" style="fill:#00ffff;"/>
   </g>
   <g id="patch_163">
    <path clip-path="url(#p741ba03ce9)" d="M 2077.188312 1602 
L 2113.422078 1602 
L 2113.422078 1602 
L 2077.188312 1602 
z
" style="fill:#00ffff;"/>
   </g>
   <g id="patch_164">
    <path clip-path="url(#p741ba03ce9)" d="M 2113.422078 1602 
L 2149.655844 1602 
L 2149.655844 1602 
L 2113.422078 1602 
z
" style="fill:#00ffff;"/>
   </g>
   <g id="patch_165">
    <path clip-path="url(#p741ba03ce9)" d="M 2149.655844 1602 
L 2185.88961 1602 
L 2185.88961 1602 
L 2149.655844 1602 
z
" style="fill:#00ffff;"/>
   </g>
   <g id="patch_166">
    <path clip-path="url(#p741ba03ce9)" d="M 2185.88961 1602 
L 2222.123377 1602 
L 2222.123377 1602 
L 2185.88961 1602 
z
" style="fill:#00ffff;"/>
   </g>
   <g id="patch_167">
    <path clip-path="url(#p741ba03ce9)" d="M 2222.123377 1602 
L 2258.357143 1602 
L 2258.357143 1602 
L 2222.123377 1602 
z
" style="fill:#00ffff;"/>
   </g>
   <g id="patch_168">
    <path clip-path="url(#p741ba03ce9)" d="M 2258.357143 1602 
L 2294.590909 1602 
L 2294.590909 1602 
L 2258.357143 1602 
z
" style="fill:#00ffff;"/>
   </g>
   <g id="patch_169">
    <path clip-path="url(#p741ba03ce9)" d="M 2294.590909 1602 
L 2330.824675 1602 
L 2330.824675 1602 
L 2294.590909 1602 
z
" style="fill:#00ffff;"/>
   </g>
   <g id="patch_170">
    <path clip-path="url(#p741ba03ce9)" d="M 2330.824675 1602 
L 2367.058442 1602 
L 2367.058442 1602 
L 2330.824675 1602 
z
" style="fill:#00ffff;"/>
   </g>
   <g id="patch_171">
    <path clip-path="url(#p741ba03ce9)" d="M 2367.058442 1602 
L 2403.292208 1602 
L 2403.292208 1478.25 
L 2367.058442 1478.25 
z
" style="fill:#00ffff;"/>
   </g>
   <g id="patch_172">
    <path clip-path="url(#p741ba03ce9)" d="M 2403.292208 1602 
L 2439.525974 1602 
L 2439.525974 1602 
L 2403.292208 1602 
z
" style="fill:#00ffff;"/>
   </g>
   <g id="patch_173">
    <path clip-path="url(#p741ba03ce9)" d="M 2439.525974 1602 
L 2475.75974 1602 
L 2475.75974 1602 
L 2439.525974 1602 
z
" style="fill:#00ffff;"/>
   </g>
   <g id="patch_174">
    <path clip-path="url(#p741ba03ce9)" d="M 2475.75974 1602 
L 2511.993506 1602 
L 2511.993506 1395.75 
L 2475.75974 1395.75 
z
" style="fill:#00ffff;"/>
   </g>
   <g id="patch_175">
    <path clip-path="url(#p741ba03ce9)" d="M 2511.993506 1602 
L 2548.227273 1602 
L 2548.227273 1602 
L 2511.993506 1602 
z
" style="fill:#00ffff;"/>
   </g>
   <g id="patch_176">
    <path clip-path="url(#p741ba03ce9)" d="M 2548.227273 1602 
L 2584.461039 1602 
L 2584.461039 1602 
L 2548.227273 1602 
z
" style="fill:#00ffff;"/>
   </g>
   <g id="patch_177">
    <path clip-path="url(#p741ba03ce9)" d="M 2584.461039 1602 
L 2620.694805 1602 
L 2620.694805 1189.5 
L 2584.461039 1189.5 
z
" style="fill:#00ffff;"/>
   </g>
   <g id="patch_178">
    <path clip-path="url(#p741ba03ce9)" d="M 2620.694805 1602 
L 2656.928571 1602 
L 2656.928571 1602 
L 2620.694805 1602 
z
" style="fill:#00ffff;"/>
   </g>
   <g id="patch_179">
    <path clip-path="url(#p741ba03ce9)" d="M 2656.928571 1602 
L 2693.162338 1602 
L 2693.162338 1602 
L 2656.928571 1602 
z
" style="fill:#00ffff;"/>
   </g>
   <g id="patch_180">
    <path clip-path="url(#p741ba03ce9)" d="M 2693.162338 1602 
L 2729.396104 1602 
L 2729.396104 1230.75 
L 2693.162338 1230.75 
z
" style="fill:#00ffff;"/>
   </g>
   <g id="patch_181">
    <path clip-path="url(#p741ba03ce9)" d="M 2729.396104 1602 
L 2765.62987 1602 
L 2765.62987 1602 
L 2729.396104 1602 
z
" style="fill:#00ffff;"/>
   </g>
   <g id="patch_182">
    <path clip-path="url(#p741ba03ce9)" d="M 2765.62987 1602 
L 2801.863636 1602 
L 2801.863636 1272 
L 2765.62987 1272 
z
" style="fill:#00ffff;"/>
   </g>
   <g id="patch_183">
    <path clip-path="url(#p741ba03ce9)" d="M 627.837662 1602 
L 664.071429 1602 
L 664.071429 1560.75 
L 627.837662 1560.75 
z
" style="fill:#008000;"/>
   </g>
   <g id="patch_184">
    <path clip-path="url(#p741ba03ce9)" d="M 664.071429 1602 
L 700.305195 1602 
L 700.305195 1602 
L 664.071429 1602 
z
" style="fill:#008000;"/>
   </g>
   <g id="patch_185">
    <path clip-path="url(#p741ba03ce9)" d="M 700.305195 1602 
L 736.538961 1602 
L 736.538961 1602 
L 700.305195 1602 
z
" style="fill:#008000;"/>
   </g>
   <g id="patch_186">
    <path clip-path="url(#p741ba03ce9)" d="M 736.538961 1602 
L 772.772727 1602 
L 772.772727 1602 
L 736.538961 1602 
z
" style="fill:#008000;"/>
   </g>
   <g id="patch_187">
    <path clip-path="url(#p741ba03ce9)" d="M 772.772727 1602 
L 809.006494 1602 
L 809.006494 1602 
L 772.772727 1602 
z
" style="fill:#008000;"/>
   </g>
   <g id="patch_188">
    <path clip-path="url(#p741ba03ce9)" d="M 809.006494 1602 
L 845.24026 1602 
L 845.24026 1602 
L 809.006494 1602 
z
" style="fill:#008000;"/>
   </g>
   <g id="patch_189">
    <path clip-path="url(#p741ba03ce9)" d="M 845.24026 1602 
L 881.474026 1602 
L 881.474026 1602 
L 845.24026 1602 
z
" style="fill:#008000;"/>
   </g>
   <g id="patch_190">
    <path clip-path="url(#p741ba03ce9)" d="M 881.474026 1602 
L 917.707792 1602 
L 917.707792 1602 
L 881.474026 1602 
z
" style="fill:#008000;"/>
   </g>
   <g id="patch_191">
    <path clip-path="url(#p741ba03ce9)" d="M 917.707792 1602 
L 953.941558 1602 
L 953.941558 1602 
L 917.707792 1602 
z
" style="fill:#008000;"/>
   </g>
   <g id="patch_192">
    <path clip-path="url(#p741ba03ce9)" d="M 953.941558 1602 
L 990.175325 1602 
L 990.175325 1560.75 
L 953.941558 1560.75 
z
" style="fill:#008000;"/>
   </g>
   <g id="patch_193">
    <path clip-path="url(#p741ba03ce9)" d="M 990.175325 1602 
L 1026.409091 1602 
L 1026.409091 1602 
L 990.175325 1602 
z
" style="fill:#008000;"/>
   </g>
   <g id="patch_194">
    <path clip-path="url(#p741ba03ce9)" d="M 1026.409091 1602 
L 1062.642857 1602 
L 1062.642857 1602 
L 1026.409091 1602 
z
" style="fill:#008000;"/>
   </g>
   <g id="patch_195">
    <path clip-path="url(#p741ba03ce9)" d="M 1062.642857 1602 
L 1098.876623 1602 
L 1098.876623 1560.75 
L 1062.642857 1560.75 
z
" style="fill:#008000;"/>
   </g>
   <g id="patch_196">
    <path clip-path="url(#p741ba03ce9)" d="M 1098.876623 1602 
L 1135.11039 1602 
L 1135.11039 1602 
L 1098.876623 1602 
z
" style="fill:#008000;"/>
   </g>
   <g id="patch_197">
    <path clip-path="url(#p741ba03ce9)" d="M 1135.11039 1602 
L 1171.344156 1602 
L 1171.344156 1602 
L 1135.11039 1602 
z
" style="fill:#008000;"/>
   </g>
   <g id="patch_198">
    <path clip-path="url(#p741ba03ce9)" d="M 1171.344156 1602 
L 1207.577922 1602 
L 1207.577922 1602 
L 1171.344156 1602 
z
" style="fill:#008000;"/>
   </g>
   <g id="patch_199">
    <path clip-path="url(#p741ba03ce9)" d="M 1207.577922 1602 
L 1243.811688 1602 
L 1243.811688 1602 
L 1207.577922 1602 
z
" style="fill:#008000;"/>
   </g>
   <g id="patch_200">
    <path clip-path="url(#p741ba03ce9)" d="M 1243.811688 1602 
L 1280.045455 1602 
L 1280.045455 1602 
L 1243.811688 1602 
z
" style="fill:#008000;"/>
   </g>
   <g id="patch_201">
    <path clip-path="url(#p741ba03ce9)" d="M 1280.045455 1602 
L 1316.279221 1602 
L 1316.279221 1602 
L 1280.045455 1602 
z
" style="fill:#008000;"/>
   </g>
   <g id="patch_202">
    <path clip-path="url(#p741ba03ce9)" d="M 1316.279221 1602 
L 1352.512987 1602 
L 1352.512987 1602 
L 1316.279221 1602 
z
" style="fill:#008000;"/>
   </g>
   <g id="patch_203">
    <path clip-path="url(#p741ba03ce9)" d="M 1352.512987 1602 
L 1388.746753 1602 
L 1388.746753 1602 
L 1352.512987 1602 
z
" style="fill:#008000;"/>
   </g>
   <g id="patch_204">
    <path clip-path="url(#p741ba03ce9)" d="M 1388.746753 1602 
L 1424.980519 1602 
L 1424.980519 1602 
L 1388.746753 1602 
z
" style="fill:#008000;"/>
   </g>
   <g id="patch_205">
    <path clip-path="url(#p741ba03ce9)" d="M 1424.980519 1602 
L 1461.214286 1602 
L 1461.214286 1602 
L 1424.980519 1602 
z
" style="fill:#008000;"/>
   </g>
   <g id="patch_206">
    <path clip-path="url(#p741ba03ce9)" d="M 1461.214286 1602 
L 1497.448052 1602 
L 1497.448052 1602 
L 1461.214286 1602 
z
" style="fill:#008000;"/>
   </g>
   <g id="patch_207">
    <path clip-path="url(#p741ba03ce9)" d="M 1497.448052 1602 
L 1533.681818 1602 
L 1533.681818 1560.75 
L 1497.448052 1560.75 
z
" style="fill:#008000;"/>
   </g>
   <g id="patch_208">
    <path clip-path="url(#p741ba03ce9)" d="M 1533.681818 1602 
L 1569.915584 1602 
L 1569.915584 1602 
L 1533.681818 1602 
z
" style="fill:#008000;"/>
   </g>
   <g id="patch_209">
    <path clip-path="url(#p741ba03ce9)" d="M 1569.915584 1602 
L 1606.149351 1602 
L 1606.149351 1602 
L 1569.915584 1602 
z
" style="fill:#008000;"/>
   </g>
   <g id="patch_210">
    <path clip-path="url(#p741ba03ce9)" d="M 1606.149351 1602 
L 1642.383117 1602 
L 1642.383117 1602 
L 1606.149351 1602 
z
" style="fill:#008000;"/>
   </g>
   <g id="patch_211">
    <path clip-path="url(#p741ba03ce9)" d="M 1642.383117 1602 
L 1678.616883 1602 
L 1678.616883 1602 
L 1642.383117 1602 
z
" style="fill:#008000;"/>
   </g>
   <g id="patch_212">
    <path clip-path="url(#p741ba03ce9)" d="M 1678.616883 1602 
L 1714.850649 1602 
L 1714.850649 1602 
L 1678.616883 1602 
z
" style="fill:#008000;"/>
   </g>
   <g id="patch_213">
    <path clip-path="url(#p741ba03ce9)" d="M 1714.850649 1602 
L 1751.084416 1602 
L 1751.084416 1602 
L 1714.850649 1602 
z
" style="fill:#008000;"/>
   </g>
   <g id="patch_214">
    <path clip-path="url(#p741ba03ce9)" d="M 1751.084416 1602 
L 1787.318182 1602 
L 1787.318182 1602 
L 1751.084416 1602 
z
" style="fill:#008000;"/>
   </g>
   <g id="patch_215">
    <path clip-path="url(#p741ba03ce9)" d="M 1787.318182 1602 
L 1823.551948 1602 
L 1823.551948 1602 
L 1787.318182 1602 
z
" style="fill:#008000;"/>
   </g>
   <g id="patch_216">
    <path clip-path="url(#p741ba03ce9)" d="M 1823.551948 1602 
L 1859.785714 1602 
L 1859.785714 1478.25 
L 1823.551948 1478.25 
z
" style="fill:#008000;"/>
   </g>
   <g id="patch_217">
    <path clip-path="url(#p741ba03ce9)" d="M 1859.785714 1602 
L 1896.019481 1602 
L 1896.019481 1602 
L 1859.785714 1602 
z
" style="fill:#008000;"/>
   </g>
   <g id="patch_218">
    <path clip-path="url(#p741ba03ce9)" d="M 1896.019481 1602 
L 1932.253247 1602 
L 1932.253247 1602 
L 1896.019481 1602 
z
" style="fill:#008000;"/>
   </g>
   <g id="patch_219">
    <path clip-path="url(#p741ba03ce9)" d="M 1932.253247 1602 
L 1968.487013 1602 
L 1968.487013 1437 
L 1932.253247 1437 
z
" style="fill:#008000;"/>
   </g>
   <g id="patch_220">
    <path clip-path="url(#p741ba03ce9)" d="M 1968.487013 1602 
L 2004.720779 1602 
L 2004.720779 1602 
L 1968.487013 1602 
z
" style="fill:#008000;"/>
   </g>
   <g id="patch_221">
    <path clip-path="url(#p741ba03ce9)" d="M 2004.720779 1602 
L 2040.954545 1602 
L 2040.954545 1602 
L 2004.720779 1602 
z
" style="fill:#008000;"/>
   </g>
   <g id="patch_222">
    <path clip-path="url(#p741ba03ce9)" d="M 2040.954545 1602 
L 2077.188312 1602 
L 2077.188312 1560.75 
L 2040.954545 1560.75 
z
" style="fill:#008000;"/>
   </g>
   <g id="patch_223">
    <path clip-path="url(#p741ba03ce9)" d="M 2077.188312 1602 
L 2113.422078 1602 
L 2113.422078 1602 
L 2077.188312 1602 
z
" style="fill:#008000;"/>
   </g>
   <g id="patch_224">
    <path clip-path="url(#p741ba03ce9)" d="M 2113.422078 1602 
L 2149.655844 1602 
L 2149.655844 1602 
L 2113.422078 1602 
z
" style="fill:#008000;"/>
   </g>
   <g id="patch_225">
    <path clip-path="url(#p741ba03ce9)" d="M 2149.655844 1602 
L 2185.88961 1602 
L 2185.88961 1602 
L 2149.655844 1602 
z
" style="fill:#008000;"/>
   </g>
   <g id="patch_226">
    <path clip-path="url(#p741ba03ce9)" d="M 2185.88961 1602 
L 2222.123377 1602 
L 2222.123377 1602 
L 2185.88961 1602 
z
" style="fill:#008000;"/>
   </g>
   <g id="patch_227">
    <path clip-path="url(#p741ba03ce9)" d="M 2222.123377 1602 
L 2258.357143 1602 
L 2258.357143 1602 
L 2222.123377 1602 
z
" style="fill:#008000;"/>
   </g>
   <g id="patch_228">
    <path clip-path="url(#p741ba03ce9)" d="M 2258.357143 1602 
L 2294.590909 1602 
L 2294.590909 1560.75 
L 2258.357143 1560.75 
z
" style="fill:#008000;"/>
   </g>
   <g id="patch_229">
    <path clip-path="url(#p741ba03ce9)" d="M 2294.590909 1602 
L 2330.824675 1602 
L 2330.824675 1602 
L 2294.590909 1602 
z
" style="fill:#008000;"/>
   </g>
   <g id="patch_230">
    <path clip-path="url(#p741ba03ce9)" d="M 2330.824675 1602 
L 2367.058442 1602 
L 2367.058442 1602 
L 2330.824675 1602 
z
" style="fill:#008000;"/>
   </g>
   <g id="patch_231">
    <path clip-path="url(#p741ba03ce9)" d="M 2367.058442 1602 
L 2403.292208 1602 
L 2403.292208 1602 
L 2367.058442 1602 
z
" style="fill:#008000;"/>
   </g>
   <g id="patch_232">
    <path clip-path="url(#p741ba03ce9)" d="M 2403.292208 1602 
L 2439.525974 1602 
L 2439.525974 1602 
L 2403.292208 1602 
z
" style="fill:#008000;"/>
   </g>
   <g id="patch_233">
    <path clip-path="url(#p741ba03ce9)" d="M 2439.525974 1602 
L 2475.75974 1602 
L 2475.75974 1602 
L 2439.525974 1602 
z
" style="fill:#008000;"/>
   </g>
   <g id="patch_234">
    <path clip-path="url(#p741ba03ce9)" d="M 2475.75974 1602 
L 2511.993506 1602 
L 2511.993506 1437 
L 2475.75974 1437 
z
" style="fill:#008000;"/>
   </g>
   <g id="patch_235">
    <path clip-path="url(#p741ba03ce9)" d="M 2511.993506 1602 
L 2548.227273 1602 
L 2548.227273 1602 
L 2511.993506 1602 
z
" style="fill:#008000;"/>
   </g>
   <g id="patch_236">
    <path clip-path="url(#p741ba03ce9)" d="M 2548.227273 1602 
L 2584.461039 1602 
L 2584.461039 1602 
L 2548.227273 1602 
z
" style="fill:#008000;"/>
   </g>
   <g id="patch_237">
    <path clip-path="url(#p741ba03ce9)" d="M 2584.461039 1602 
L 2620.694805 1602 
L 2620.694805 1437 
L 2584.461039 1437 
z
" style="fill:#008000;"/>
   </g>
   <g id="patch_238">
    <path clip-path="url(#p741ba03ce9)" d="M 2620.694805 1602 
L 2656.928571 1602 
L 2656.928571 1602 
L 2620.694805 1602 
z
" style="fill:#008000;"/>
   </g>
   <g id="patch_239">
    <path clip-path="url(#p741ba03ce9)" d="M 2656.928571 1602 
L 2693.162338 1602 
L 2693.162338 1602 
L 2656.928571 1602 
z
" style="fill:#008000;"/>
   </g>
   <g id="patch_240">
    <path clip-path="url(#p741ba03ce9)" d="M 2693.162338 1602 
L 2729.396104 1602 
L 2729.396104 1560.75 
L 2693.162338 1560.75 
z
" style="fill:#008000;"/>
   </g>
   <g id="patch_241">
    <path clip-path="url(#p741ba03ce9)" d="M 2729.396104 1602 
L 2765.62987 1602 
L 2765.62987 1602 
L 2729.396104 1602 
z
" style="fill:#008000;"/>
   </g>
   <g id="patch_242">
    <path clip-path="url(#p741ba03ce9)" d="M 2765.62987 1602 
L 2801.863636 1602 
L 2801.863636 1478.25 
L 2765.62987 1478.25 
z
" style="fill:#008000;"/>
   </g>
   <g id="matplotlib.axis_1">
    <g id="xtick_1">
     <g id="line2d_1">
      <defs>
       <path d="M 0 0 
L 0 3.5 
" id="m1febb4459a" style="stroke:#000000;stroke-width:0.8;"/>
      </defs>
      <g>
       <use style="stroke:#000000;stroke-width:0.8;" x="519.136364" xlink:href="#m1febb4459a" y="1602"/>
      </g>
     </g>
     <g id="text_1">
      <!-- alfa-romero -->
      <g transform="translate(490.103551 1616.598438)scale(0.1 -0.1)">
       <defs>
        <path d="M 2194 1759 
Q 1497 1759 1228 1600 
Q 959 1441 959 1056 
Q 959 750 1161 570 
Q 1363 391 1709 391 
Q 2188 391 2477 730 
Q 2766 1069 2766 1631 
L 2766 1759 
L 2194 1759 
z
M 3341 1997 
L 3341 0 
L 2766 0 
L 2766 531 
Q 2569 213 2275 61 
Q 1981 -91 1556 -91 
Q 1019 -91 701 211 
Q 384 513 384 1019 
Q 384 1609 779 1909 
Q 1175 2209 1959 2209 
L 2766 2209 
L 2766 2266 
Q 2766 2663 2505 2880 
Q 2244 3097 1772 3097 
Q 1472 3097 1187 3025 
Q 903 2953 641 2809 
L 641 3341 
Q 956 3463 1253 3523 
Q 1550 3584 1831 3584 
Q 2591 3584 2966 3190 
Q 3341 2797 3341 1997 
z
" id="DejaVuSans-61" transform="scale(0.015625)"/>
        <path d="M 603 4863 
L 1178 4863 
L 1178 0 
L 603 0 
L 603 4863 
z
" id="DejaVuSans-6c" transform="scale(0.015625)"/>
        <path d="M 2375 4863 
L 2375 4384 
L 1825 4384 
Q 1516 4384 1395 4259 
Q 1275 4134 1275 3809 
L 1275 3500 
L 2222 3500 
L 2222 3053 
L 1275 3053 
L 1275 0 
L 697 0 
L 697 3053 
L 147 3053 
L 147 3500 
L 697 3500 
L 697 3744 
Q 697 4328 969 4595 
Q 1241 4863 1831 4863 
L 2375 4863 
z
" id="DejaVuSans-66" transform="scale(0.015625)"/>
        <path d="M 313 2009 
L 1997 2009 
L 1997 1497 
L 313 1497 
L 313 2009 
z
" id="DejaVuSans-2d" transform="scale(0.015625)"/>
        <path d="M 2631 2963 
Q 2534 3019 2420 3045 
Q 2306 3072 2169 3072 
Q 1681 3072 1420 2755 
Q 1159 2438 1159 1844 
L 1159 0 
L 581 0 
L 581 3500 
L 1159 3500 
L 1159 2956 
Q 1341 3275 1631 3429 
Q 1922 3584 2338 3584 
Q 2397 3584 2469 3576 
Q 2541 3569 2628 3553 
L 2631 2963 
z
" id="DejaVuSans-72" transform="scale(0.015625)"/>
        <path d="M 1959 3097 
Q 1497 3097 1228 2736 
Q 959 2375 959 1747 
Q 959 1119 1226 758 
Q 1494 397 1959 397 
Q 2419 397 2687 759 
Q 2956 1122 2956 1747 
Q 2956 2369 2687 2733 
Q 2419 3097 1959 3097 
z
M 1959 3584 
Q 2709 3584 3137 3096 
Q 3566 2609 3566 1747 
Q 3566 888 3137 398 
Q 2709 -91 1959 -91 
Q 1206 -91 779 398 
Q 353 888 353 1747 
Q 353 2609 779 3096 
Q 1206 3584 1959 3584 
z
" id="DejaVuSans-6f" transform="scale(0.015625)"/>
        <path d="M 3328 2828 
Q 3544 3216 3844 3400 
Q 4144 3584 4550 3584 
Q 5097 3584 5394 3201 
Q 5691 2819 5691 2113 
L 5691 0 
L 5113 0 
L 5113 2094 
Q 5113 2597 4934 2840 
Q 4756 3084 4391 3084 
Q 3944 3084 3684 2787 
Q 3425 2491 3425 1978 
L 3425 0 
L 2847 0 
L 2847 2094 
Q 2847 2600 2669 2842 
Q 2491 3084 2119 3084 
Q 1678 3084 1418 2786 
Q 1159 2488 1159 1978 
L 1159 0 
L 581 0 
L 581 3500 
L 1159 3500 
L 1159 2956 
Q 1356 3278 1631 3431 
Q 1906 3584 2284 3584 
Q 2666 3584 2933 3390 
Q 3200 3197 3328 2828 
z
" id="DejaVuSans-6d" transform="scale(0.015625)"/>
        <path d="M 3597 1894 
L 3597 1613 
L 953 1613 
Q 991 1019 1311 708 
Q 1631 397 2203 397 
Q 2534 397 2845 478 
Q 3156 559 3463 722 
L 3463 178 
Q 3153 47 2828 -22 
Q 2503 -91 2169 -91 
Q 1331 -91 842 396 
Q 353 884 353 1716 
Q 353 2575 817 3079 
Q 1281 3584 2069 3584 
Q 2775 3584 3186 3129 
Q 3597 2675 3597 1894 
z
M 3022 2063 
Q 3016 2534 2758 2815 
Q 2500 3097 2075 3097 
Q 1594 3097 1305 2825 
Q 1016 2553 972 2059 
L 3022 2063 
z
" id="DejaVuSans-65" transform="scale(0.015625)"/>
       </defs>
       <use xlink:href="#DejaVuSans-61"/>
       <use x="61.279297" xlink:href="#DejaVuSans-6c"/>
       <use x="89.0625" xlink:href="#DejaVuSans-66"/>
       <use x="124.267578" xlink:href="#DejaVuSans-61"/>
       <use x="185.546875" xlink:href="#DejaVuSans-2d"/>
       <use x="221.630859" xlink:href="#DejaVuSans-72"/>
       <use x="260.494141" xlink:href="#DejaVuSans-6f"/>
       <use x="321.675781" xlink:href="#DejaVuSans-6d"/>
       <use x="419.087891" xlink:href="#DejaVuSans-65"/>
       <use x="480.611328" xlink:href="#DejaVuSans-72"/>
       <use x="519.474609" xlink:href="#DejaVuSans-6f"/>
      </g>
     </g>
    </g>
    <g id="xtick_2">
     <g id="line2d_2">
      <g>
       <use style="stroke:#000000;stroke-width:0.8;" x="627.837662" xlink:href="#m1febb4459a" y="1602"/>
      </g>
     </g>
     <g id="text_2">
      <!-- audi -->
      <g transform="translate(617.041569 1616.598438)scale(0.1 -0.1)">
       <defs>
        <path d="M 544 1381 
L 544 3500 
L 1119 3500 
L 1119 1403 
Q 1119 906 1312 657 
Q 1506 409 1894 409 
Q 2359 409 2629 706 
Q 2900 1003 2900 1516 
L 2900 3500 
L 3475 3500 
L 3475 0 
L 2900 0 
L 2900 538 
Q 2691 219 2414 64 
Q 2138 -91 1772 -91 
Q 1169 -91 856 284 
Q 544 659 544 1381 
z
M 1991 3584 
L 1991 3584 
z
" id="DejaVuSans-75" transform="scale(0.015625)"/>
        <path d="M 2906 2969 
L 2906 4863 
L 3481 4863 
L 3481 0 
L 2906 0 
L 2906 525 
Q 2725 213 2448 61 
Q 2172 -91 1784 -91 
Q 1150 -91 751 415 
Q 353 922 353 1747 
Q 353 2572 751 3078 
Q 1150 3584 1784 3584 
Q 2172 3584 2448 3432 
Q 2725 3281 2906 2969 
z
M 947 1747 
Q 947 1113 1208 752 
Q 1469 391 1925 391 
Q 2381 391 2643 752 
Q 2906 1113 2906 1747 
Q 2906 2381 2643 2742 
Q 2381 3103 1925 3103 
Q 1469 3103 1208 2742 
Q 947 2381 947 1747 
z
" id="DejaVuSans-64" transform="scale(0.015625)"/>
        <path d="M 603 3500 
L 1178 3500 
L 1178 0 
L 603 0 
L 603 3500 
z
M 603 4863 
L 1178 4863 
L 1178 4134 
L 603 4134 
L 603 4863 
z
" id="DejaVuSans-69" transform="scale(0.015625)"/>
       </defs>
       <use xlink:href="#DejaVuSans-61"/>
       <use x="61.279297" xlink:href="#DejaVuSans-75"/>
       <use x="124.658203" xlink:href="#DejaVuSans-64"/>
       <use x="188.134766" xlink:href="#DejaVuSans-69"/>
      </g>
     </g>
    </g>
    <g id="xtick_3">
     <g id="line2d_3">
      <g>
       <use style="stroke:#000000;stroke-width:0.8;" x="736.538961" xlink:href="#m1febb4459a" y="1602"/>
      </g>
     </g>
     <g id="text_3">
      <!-- bmw -->
      <g transform="translate(724.405367 1616.598438)scale(0.1 -0.1)">
       <defs>
        <path d="M 3116 1747 
Q 3116 2381 2855 2742 
Q 2594 3103 2138 3103 
Q 1681 3103 1420 2742 
Q 1159 2381 1159 1747 
Q 1159 1113 1420 752 
Q 1681 391 2138 391 
Q 2594 391 2855 752 
Q 3116 1113 3116 1747 
z
M 1159 2969 
Q 1341 3281 1617 3432 
Q 1894 3584 2278 3584 
Q 2916 3584 3314 3078 
Q 3713 2572 3713 1747 
Q 3713 922 3314 415 
Q 2916 -91 2278 -91 
Q 1894 -91 1617 61 
Q 1341 213 1159 525 
L 1159 0 
L 581 0 
L 581 4863 
L 1159 4863 
L 1159 2969 
z
" id="DejaVuSans-62" transform="scale(0.015625)"/>
        <path d="M 269 3500 
L 844 3500 
L 1563 769 
L 2278 3500 
L 2956 3500 
L 3675 769 
L 4391 3500 
L 4966 3500 
L 4050 0 
L 3372 0 
L 2619 2869 
L 1863 0 
L 1184 0 
L 269 3500 
z
" id="DejaVuSans-77" transform="scale(0.015625)"/>
       </defs>
       <use xlink:href="#DejaVuSans-62"/>
       <use x="63.476562" xlink:href="#DejaVuSans-6d"/>
       <use x="160.888672" xlink:href="#DejaVuSans-77"/>
      </g>
     </g>
    </g>
    <g id="xtick_4">
     <g id="line2d_4">
      <g>
       <use style="stroke:#000000;stroke-width:0.8;" x="845.24026" xlink:href="#m1febb4459a" y="1602"/>
      </g>
     </g>
     <g id="text_4">
      <!-- chevrolet -->
      <g transform="translate(821.858228 1616.598438)scale(0.1 -0.1)">
       <defs>
        <path d="M 3122 3366 
L 3122 2828 
Q 2878 2963 2633 3030 
Q 2388 3097 2138 3097 
Q 1578 3097 1268 2742 
Q 959 2388 959 1747 
Q 959 1106 1268 751 
Q 1578 397 2138 397 
Q 2388 397 2633 464 
Q 2878 531 3122 666 
L 3122 134 
Q 2881 22 2623 -34 
Q 2366 -91 2075 -91 
Q 1284 -91 818 406 
Q 353 903 353 1747 
Q 353 2603 823 3093 
Q 1294 3584 2113 3584 
Q 2378 3584 2631 3529 
Q 2884 3475 3122 3366 
z
" id="DejaVuSans-63" transform="scale(0.015625)"/>
        <path d="M 3513 2113 
L 3513 0 
L 2938 0 
L 2938 2094 
Q 2938 2591 2744 2837 
Q 2550 3084 2163 3084 
Q 1697 3084 1428 2787 
Q 1159 2491 1159 1978 
L 1159 0 
L 581 0 
L 581 4863 
L 1159 4863 
L 1159 2956 
Q 1366 3272 1645 3428 
Q 1925 3584 2291 3584 
Q 2894 3584 3203 3211 
Q 3513 2838 3513 2113 
z
" id="DejaVuSans-68" transform="scale(0.015625)"/>
        <path d="M 191 3500 
L 800 3500 
L 1894 563 
L 2988 3500 
L 3597 3500 
L 2284 0 
L 1503 0 
L 191 3500 
z
" id="DejaVuSans-76" transform="scale(0.015625)"/>
        <path d="M 1172 4494 
L 1172 3500 
L 2356 3500 
L 2356 3053 
L 1172 3053 
L 1172 1153 
Q 1172 725 1289 603 
Q 1406 481 1766 481 
L 2356 481 
L 2356 0 
L 1766 0 
Q 1100 0 847 248 
Q 594 497 594 1153 
L 594 3053 
L 172 3053 
L 172 3500 
L 594 3500 
L 594 4494 
L 1172 4494 
z
" id="DejaVuSans-74" transform="scale(0.015625)"/>
       </defs>
       <use xlink:href="#DejaVuSans-63"/>
       <use x="54.980469" xlink:href="#DejaVuSans-68"/>
       <use x="118.359375" xlink:href="#DejaVuSans-65"/>
       <use x="179.882812" xlink:href="#DejaVuSans-76"/>
       <use x="239.0625" xlink:href="#DejaVuSans-72"/>
       <use x="277.925781" xlink:href="#DejaVuSans-6f"/>
       <use x="339.107422" xlink:href="#DejaVuSans-6c"/>
       <use x="366.890625" xlink:href="#DejaVuSans-65"/>
       <use x="428.414062" xlink:href="#DejaVuSans-74"/>
      </g>
     </g>
    </g>
    <g id="xtick_5">
     <g id="line2d_5">
      <g>
       <use style="stroke:#000000;stroke-width:0.8;" x="953.941558" xlink:href="#m1febb4459a" y="1602"/>
      </g>
     </g>
     <g id="text_5">
      <!-- dodge -->
      <g transform="translate(938.282965 1616.598438)scale(0.1 -0.1)">
       <defs>
        <path d="M 2906 1791 
Q 2906 2416 2648 2759 
Q 2391 3103 1925 3103 
Q 1463 3103 1205 2759 
Q 947 2416 947 1791 
Q 947 1169 1205 825 
Q 1463 481 1925 481 
Q 2391 481 2648 825 
Q 2906 1169 2906 1791 
z
M 3481 434 
Q 3481 -459 3084 -895 
Q 2688 -1331 1869 -1331 
Q 1566 -1331 1297 -1286 
Q 1028 -1241 775 -1147 
L 775 -588 
Q 1028 -725 1275 -790 
Q 1522 -856 1778 -856 
Q 2344 -856 2625 -561 
Q 2906 -266 2906 331 
L 2906 616 
Q 2728 306 2450 153 
Q 2172 0 1784 0 
Q 1141 0 747 490 
Q 353 981 353 1791 
Q 353 2603 747 3093 
Q 1141 3584 1784 3584 
Q 2172 3584 2450 3431 
Q 2728 3278 2906 2969 
L 2906 3500 
L 3481 3500 
L 3481 434 
z
" id="DejaVuSans-67" transform="scale(0.015625)"/>
       </defs>
       <use xlink:href="#DejaVuSans-64"/>
       <use x="63.476562" xlink:href="#DejaVuSans-6f"/>
       <use x="124.658203" xlink:href="#DejaVuSans-64"/>
       <use x="188.134766" xlink:href="#DejaVuSans-67"/>
       <use x="251.611328" xlink:href="#DejaVuSans-65"/>
      </g>
     </g>
    </g>
    <g id="xtick_6">
     <g id="line2d_6">
      <g>
       <use style="stroke:#000000;stroke-width:0.8;" x="1062.642857" xlink:href="#m1febb4459a" y="1602"/>
      </g>
     </g>
     <g id="text_6">
      <!-- honda -->
      <g transform="translate(1047.007701 1616.598438)scale(0.1 -0.1)">
       <defs>
        <path d="M 3513 2113 
L 3513 0 
L 2938 0 
L 2938 2094 
Q 2938 2591 2744 2837 
Q 2550 3084 2163 3084 
Q 1697 3084 1428 2787 
Q 1159 2491 1159 1978 
L 1159 0 
L 581 0 
L 581 3500 
L 1159 3500 
L 1159 2956 
Q 1366 3272 1645 3428 
Q 1925 3584 2291 3584 
Q 2894 3584 3203 3211 
Q 3513 2838 3513 2113 
z
" id="DejaVuSans-6e" transform="scale(0.015625)"/>
       </defs>
       <use xlink:href="#DejaVuSans-68"/>
       <use x="63.378906" xlink:href="#DejaVuSans-6f"/>
       <use x="124.560547" xlink:href="#DejaVuSans-6e"/>
       <use x="187.939453" xlink:href="#DejaVuSans-64"/>
       <use x="251.416016" xlink:href="#DejaVuSans-61"/>
      </g>
     </g>
    </g>
    <g id="xtick_7">
     <g id="line2d_7">
      <g>
       <use style="stroke:#000000;stroke-width:0.8;" x="1171.344156" xlink:href="#m1febb4459a" y="1602"/>
      </g>
     </g>
     <g id="text_7">
      <!-- isuzu -->
      <g transform="translate(1158.388687 1616.598438)scale(0.1 -0.1)">
       <defs>
        <path d="M 2834 3397 
L 2834 2853 
Q 2591 2978 2328 3040 
Q 2066 3103 1784 3103 
Q 1356 3103 1142 2972 
Q 928 2841 928 2578 
Q 928 2378 1081 2264 
Q 1234 2150 1697 2047 
L 1894 2003 
Q 2506 1872 2764 1633 
Q 3022 1394 3022 966 
Q 3022 478 2636 193 
Q 2250 -91 1575 -91 
Q 1294 -91 989 -36 
Q 684 19 347 128 
L 347 722 
Q 666 556 975 473 
Q 1284 391 1588 391 
Q 1994 391 2212 530 
Q 2431 669 2431 922 
Q 2431 1156 2273 1281 
Q 2116 1406 1581 1522 
L 1381 1569 
Q 847 1681 609 1914 
Q 372 2147 372 2553 
Q 372 3047 722 3315 
Q 1072 3584 1716 3584 
Q 2034 3584 2315 3537 
Q 2597 3491 2834 3397 
z
" id="DejaVuSans-73" transform="scale(0.015625)"/>
        <path d="M 353 3500 
L 3084 3500 
L 3084 2975 
L 922 459 
L 3084 459 
L 3084 0 
L 275 0 
L 275 525 
L 2438 3041 
L 353 3041 
L 353 3500 
z
" id="DejaVuSans-7a" transform="scale(0.015625)"/>
       </defs>
       <use xlink:href="#DejaVuSans-69"/>
       <use x="27.783203" xlink:href="#DejaVuSans-73"/>
       <use x="79.882812" xlink:href="#DejaVuSans-75"/>
       <use x="143.261719" xlink:href="#DejaVuSans-7a"/>
       <use x="195.751953" xlink:href="#DejaVuSans-75"/>
      </g>
     </g>
    </g>
    <g id="xtick_8">
     <g id="line2d_8">
      <g>
       <use style="stroke:#000000;stroke-width:0.8;" x="1280.045455" xlink:href="#m1febb4459a" y="1602"/>
      </g>
     </g>
     <g id="text_8">
      <!-- jaguar -->
      <g transform="translate(1264.12983 1616.598438)scale(0.1 -0.1)">
       <defs>
        <path d="M 603 3500 
L 1178 3500 
L 1178 -63 
Q 1178 -731 923 -1031 
Q 669 -1331 103 -1331 
L -116 -1331 
L -116 -844 
L 38 -844 
Q 366 -844 484 -692 
Q 603 -541 603 -63 
L 603 3500 
z
M 603 4863 
L 1178 4863 
L 1178 4134 
L 603 4134 
L 603 4863 
z
" id="DejaVuSans-6a" transform="scale(0.015625)"/>
       </defs>
       <use xlink:href="#DejaVuSans-6a"/>
       <use x="27.783203" xlink:href="#DejaVuSans-61"/>
       <use x="89.0625" xlink:href="#DejaVuSans-67"/>
       <use x="152.539062" xlink:href="#DejaVuSans-75"/>
       <use x="215.917969" xlink:href="#DejaVuSans-61"/>
       <use x="277.197266" xlink:href="#DejaVuSans-72"/>
      </g>
     </g>
    </g>
    <g id="xtick_9">
     <g id="line2d_9">
      <g>
       <use style="stroke:#000000;stroke-width:0.8;" x="1388.746753" xlink:href="#m1febb4459a" y="1602"/>
      </g>
     </g>
     <g id="text_9">
      <!-- mazda -->
      <g transform="translate(1371.949878 1616.598438)scale(0.1 -0.1)">
       <use xlink:href="#DejaVuSans-6d"/>
       <use x="97.412109" xlink:href="#DejaVuSans-61"/>
       <use x="158.691406" xlink:href="#DejaVuSans-7a"/>
       <use x="211.181641" xlink:href="#DejaVuSans-64"/>
       <use x="274.658203" xlink:href="#DejaVuSans-61"/>
      </g>
     </g>
    </g>
    <g id="xtick_10">
     <g id="line2d_10">
      <g>
       <use style="stroke:#000000;stroke-width:0.8;" x="1497.448052" xlink:href="#m1febb4459a" y="1602"/>
      </g>
     </g>
     <g id="text_10">
      <!-- mercedes-benz -->
      <g transform="translate(1459.029302 1616.598438)scale(0.1 -0.1)">
       <use xlink:href="#DejaVuSans-6d"/>
       <use x="97.412109" xlink:href="#DejaVuSans-65"/>
       <use x="158.935547" xlink:href="#DejaVuSans-72"/>
       <use x="197.798828" xlink:href="#DejaVuSans-63"/>
       <use x="252.779297" xlink:href="#DejaVuSans-65"/>
       <use x="314.302734" xlink:href="#DejaVuSans-64"/>
       <use x="377.779297" xlink:href="#DejaVuSans-65"/>
       <use x="439.302734" xlink:href="#DejaVuSans-73"/>
       <use x="491.402344" xlink:href="#DejaVuSans-2d"/>
       <use x="527.486328" xlink:href="#DejaVuSans-62"/>
       <use x="590.962891" xlink:href="#DejaVuSans-65"/>
       <use x="652.486328" xlink:href="#DejaVuSans-6e"/>
       <use x="715.865234" xlink:href="#DejaVuSans-7a"/>
      </g>
     </g>
    </g>
    <g id="xtick_11">
     <g id="line2d_11">
      <g>
       <use style="stroke:#000000;stroke-width:0.8;" x="1606.149351" xlink:href="#m1febb4459a" y="1602"/>
      </g>
     </g>
     <g id="text_11">
      <!-- mercury -->
      <g transform="translate(1585.326694 1616.598438)scale(0.1 -0.1)">
       <defs>
        <path d="M 2059 -325 
Q 1816 -950 1584 -1140 
Q 1353 -1331 966 -1331 
L 506 -1331 
L 506 -850 
L 844 -850 
Q 1081 -850 1212 -737 
Q 1344 -625 1503 -206 
L 1606 56 
L 191 3500 
L 800 3500 
L 1894 763 
L 2988 3500 
L 3597 3500 
L 2059 -325 
z
" id="DejaVuSans-79" transform="scale(0.015625)"/>
       </defs>
       <use xlink:href="#DejaVuSans-6d"/>
       <use x="97.412109" xlink:href="#DejaVuSans-65"/>
       <use x="158.935547" xlink:href="#DejaVuSans-72"/>
       <use x="197.798828" xlink:href="#DejaVuSans-63"/>
       <use x="252.779297" xlink:href="#DejaVuSans-75"/>
       <use x="316.158203" xlink:href="#DejaVuSans-72"/>
       <use x="357.271484" xlink:href="#DejaVuSans-79"/>
      </g>
     </g>
    </g>
    <g id="xtick_12">
     <g id="line2d_12">
      <g>
       <use style="stroke:#000000;stroke-width:0.8;" x="1714.850649" xlink:href="#m1febb4459a" y="1602"/>
      </g>
     </g>
     <g id="text_12">
      <!-- mitsubishi -->
      <g transform="translate(1689.131899 1616.598438)scale(0.1 -0.1)">
       <use xlink:href="#DejaVuSans-6d"/>
       <use x="97.412109" xlink:href="#DejaVuSans-69"/>
       <use x="125.195312" xlink:href="#DejaVuSans-74"/>
       <use x="164.404297" xlink:href="#DejaVuSans-73"/>
       <use x="216.503906" xlink:href="#DejaVuSans-75"/>
       <use x="279.882812" xlink:href="#DejaVuSans-62"/>
       <use x="343.359375" xlink:href="#DejaVuSans-69"/>
       <use x="371.142578" xlink:href="#DejaVuSans-73"/>
       <use x="423.242188" xlink:href="#DejaVuSans-68"/>
       <use x="486.621094" xlink:href="#DejaVuSans-69"/>
      </g>
     </g>
    </g>
    <g id="xtick_13">
     <g id="line2d_13">
      <g>
       <use style="stroke:#000000;stroke-width:0.8;" x="1823.551948" xlink:href="#m1febb4459a" y="1602"/>
      </g>
     </g>
     <g id="text_13">
      <!-- nissan -->
      <g transform="translate(1807.551948 1616.598438)scale(0.1 -0.1)">
       <use xlink:href="#DejaVuSans-6e"/>
       <use x="63.378906" xlink:href="#DejaVuSans-69"/>
       <use x="91.162109" xlink:href="#DejaVuSans-73"/>
       <use x="143.261719" xlink:href="#DejaVuSans-73"/>
       <use x="195.361328" xlink:href="#DejaVuSans-61"/>
       <use x="256.640625" xlink:href="#DejaVuSans-6e"/>
      </g>
     </g>
    </g>
    <g id="xtick_14">
     <g id="line2d_14">
      <g>
       <use style="stroke:#000000;stroke-width:0.8;" x="1932.253247" xlink:href="#m1febb4459a" y="1602"/>
      </g>
     </g>
     <g id="text_14">
      <!-- peugot -->
      <g transform="translate(1914.639966 1616.598438)scale(0.1 -0.1)">
       <defs>
        <path d="M 1159 525 
L 1159 -1331 
L 581 -1331 
L 581 3500 
L 1159 3500 
L 1159 2969 
Q 1341 3281 1617 3432 
Q 1894 3584 2278 3584 
Q 2916 3584 3314 3078 
Q 3713 2572 3713 1747 
Q 3713 922 3314 415 
Q 2916 -91 2278 -91 
Q 1894 -91 1617 61 
Q 1341 213 1159 525 
z
M 3116 1747 
Q 3116 2381 2855 2742 
Q 2594 3103 2138 3103 
Q 1681 3103 1420 2742 
Q 1159 2381 1159 1747 
Q 1159 1113 1420 752 
Q 1681 391 2138 391 
Q 2594 391 2855 752 
Q 3116 1113 3116 1747 
z
" id="DejaVuSans-70" transform="scale(0.015625)"/>
       </defs>
       <use xlink:href="#DejaVuSans-70"/>
       <use x="63.476562" xlink:href="#DejaVuSans-65"/>
       <use x="125" xlink:href="#DejaVuSans-75"/>
       <use x="188.378906" xlink:href="#DejaVuSans-67"/>
       <use x="251.855469" xlink:href="#DejaVuSans-6f"/>
       <use x="313.037109" xlink:href="#DejaVuSans-74"/>
      </g>
     </g>
    </g>
    <g id="xtick_15">
     <g id="line2d_15">
      <g>
       <use style="stroke:#000000;stroke-width:0.8;" x="2040.954545" xlink:href="#m1febb4459a" y="1602"/>
      </g>
     </g>
     <g id="text_15">
      <!-- plymouth -->
      <g transform="translate(2017.204545 1616.598438)scale(0.1 -0.1)">
       <use xlink:href="#DejaVuSans-70"/>
       <use x="63.476562" xlink:href="#DejaVuSans-6c"/>
       <use x="91.259766" xlink:href="#DejaVuSans-79"/>
       <use x="150.439453" xlink:href="#DejaVuSans-6d"/>
       <use x="247.851562" xlink:href="#DejaVuSans-6f"/>
       <use x="309.033203" xlink:href="#DejaVuSans-75"/>
       <use x="372.412109" xlink:href="#DejaVuSans-74"/>
       <use x="411.621094" xlink:href="#DejaVuSans-68"/>
      </g>
     </g>
    </g>
    <g id="xtick_16">
     <g id="line2d_16">
      <g>
       <use style="stroke:#000000;stroke-width:0.8;" x="2149.655844" xlink:href="#m1febb4459a" y="1602"/>
      </g>
     </g>
     <g id="text_16">
      <!-- porsche -->
      <g transform="translate(2129.767563 1616.598438)scale(0.1 -0.1)">
       <use xlink:href="#DejaVuSans-70"/>
       <use x="63.476562" xlink:href="#DejaVuSans-6f"/>
       <use x="124.658203" xlink:href="#DejaVuSans-72"/>
       <use x="165.771484" xlink:href="#DejaVuSans-73"/>
       <use x="217.871094" xlink:href="#DejaVuSans-63"/>
       <use x="272.851562" xlink:href="#DejaVuSans-68"/>
       <use x="336.230469" xlink:href="#DejaVuSans-65"/>
      </g>
     </g>
    </g>
    <g id="xtick_17">
     <g id="line2d_17">
      <g>
       <use style="stroke:#000000;stroke-width:0.8;" x="2258.357143" xlink:href="#m1febb4459a" y="1602"/>
      </g>
     </g>
     <g id="text_17">
      <!-- renault -->
      <g transform="translate(2240.58683 1616.598438)scale(0.1 -0.1)">
       <use xlink:href="#DejaVuSans-72"/>
       <use x="38.863281" xlink:href="#DejaVuSans-65"/>
       <use x="100.386719" xlink:href="#DejaVuSans-6e"/>
       <use x="163.765625" xlink:href="#DejaVuSans-61"/>
       <use x="225.044922" xlink:href="#DejaVuSans-75"/>
       <use x="288.423828" xlink:href="#DejaVuSans-6c"/>
       <use x="316.207031" xlink:href="#DejaVuSans-74"/>
      </g>
     </g>
    </g>
    <g id="xtick_18">
     <g id="line2d_18">
      <g>
       <use style="stroke:#000000;stroke-width:0.8;" x="2367.058442" xlink:href="#m1febb4459a" y="1602"/>
      </g>
     </g>
     <g id="text_18">
      <!-- saab -->
      <g transform="translate(2355.15141 1616.598438)scale(0.1 -0.1)">
       <use xlink:href="#DejaVuSans-73"/>
       <use x="52.099609" xlink:href="#DejaVuSans-61"/>
       <use x="113.378906" xlink:href="#DejaVuSans-61"/>
       <use x="174.658203" xlink:href="#DejaVuSans-62"/>
      </g>
     </g>
    </g>
    <g id="xtick_19">
     <g id="line2d_19">
      <g>
       <use style="stroke:#000000;stroke-width:0.8;" x="2475.75974" xlink:href="#m1febb4459a" y="1602"/>
      </g>
     </g>
     <g id="text_19">
      <!-- subaru -->
      <g transform="translate(2458.523803 1616.598438)scale(0.1 -0.1)">
       <use xlink:href="#DejaVuSans-73"/>
       <use x="52.099609" xlink:href="#DejaVuSans-75"/>
       <use x="115.478516" xlink:href="#DejaVuSans-62"/>
       <use x="178.955078" xlink:href="#DejaVuSans-61"/>
       <use x="240.234375" xlink:href="#DejaVuSans-72"/>
       <use x="281.347656" xlink:href="#DejaVuSans-75"/>
      </g>
     </g>
    </g>
    <g id="xtick_20">
     <g id="line2d_20">
      <g>
       <use style="stroke:#000000;stroke-width:0.8;" x="2584.461039" xlink:href="#m1febb4459a" y="1602"/>
      </g>
     </g>
     <g id="text_20">
      <!-- toyota -->
      <g transform="translate(2568.398539 1616.598438)scale(0.1 -0.1)">
       <use xlink:href="#DejaVuSans-74"/>
       <use x="39.208984" xlink:href="#DejaVuSans-6f"/>
       <use x="100.390625" xlink:href="#DejaVuSans-79"/>
       <use x="159.570312" xlink:href="#DejaVuSans-6f"/>
       <use x="220.751953" xlink:href="#DejaVuSans-74"/>
       <use x="259.960938" xlink:href="#DejaVuSans-61"/>
      </g>
     </g>
    </g>
    <g id="xtick_21">
     <g id="line2d_21">
      <g>
       <use style="stroke:#000000;stroke-width:0.8;" x="2693.162338" xlink:href="#m1febb4459a" y="1602"/>
      </g>
     </g>
     <g id="text_21">
      <!-- volkswagen -->
      <g transform="translate(2663.681869 1616.598438)scale(0.1 -0.1)">
       <defs>
        <path d="M 581 4863 
L 1159 4863 
L 1159 1991 
L 2875 3500 
L 3609 3500 
L 1753 1863 
L 3688 0 
L 2938 0 
L 1159 1709 
L 1159 0 
L 581 0 
L 581 4863 
z
" id="DejaVuSans-6b" transform="scale(0.015625)"/>
       </defs>
       <use xlink:href="#DejaVuSans-76"/>
       <use x="59.179688" xlink:href="#DejaVuSans-6f"/>
       <use x="120.361328" xlink:href="#DejaVuSans-6c"/>
       <use x="148.144531" xlink:href="#DejaVuSans-6b"/>
       <use x="206.054688" xlink:href="#DejaVuSans-73"/>
       <use x="258.154297" xlink:href="#DejaVuSans-77"/>
       <use x="339.941406" xlink:href="#DejaVuSans-61"/>
       <use x="401.220703" xlink:href="#DejaVuSans-67"/>
       <use x="464.697266" xlink:href="#DejaVuSans-65"/>
       <use x="526.220703" xlink:href="#DejaVuSans-6e"/>
      </g>
     </g>
    </g>
    <g id="xtick_22">
     <g id="line2d_22">
      <g>
       <use style="stroke:#000000;stroke-width:0.8;" x="2801.863636" xlink:href="#m1febb4459a" y="1602"/>
      </g>
     </g>
     <g id="text_22">
      <!-- volvo -->
      <g transform="translate(2788.437074 1616.598438)scale(0.1 -0.1)">
       <use xlink:href="#DejaVuSans-76"/>
       <use x="59.179688" xlink:href="#DejaVuSans-6f"/>
       <use x="120.361328" xlink:href="#DejaVuSans-6c"/>
       <use x="148.144531" xlink:href="#DejaVuSans-76"/>
       <use x="207.324219" xlink:href="#DejaVuSans-6f"/>
      </g>
     </g>
    </g>
    <g id="text_23">
     <!-- Araba reticileri -->
     <g transform="translate(1539.16875 1645.473438)scale(0.3 -0.3)">
      <defs>
       <path d="M 2188 4044 
L 1331 1722 
L 3047 1722 
L 2188 4044 
z
M 1831 4666 
L 2547 4666 
L 4325 0 
L 3669 0 
L 3244 1197 
L 1141 1197 
L 716 0 
L 50 0 
L 1831 4666 
z
" id="DejaVuSans-41" transform="scale(0.015625)"/>
       <path id="DejaVuSans-20" transform="scale(0.015625)"/>
       <path d="M 556 4666 
L 1191 4666 
L 1191 1831 
Q 1191 1081 1462 751 
Q 1734 422 2344 422 
Q 2950 422 3222 751 
Q 3494 1081 3494 1831 
L 3494 4666 
L 4128 4666 
L 4128 1753 
Q 4128 841 3676 375 
Q 3225 -91 2344 -91 
Q 1459 -91 1007 375 
Q 556 841 556 1753 
L 556 4666 
z
M 2638 5830 
L 3272 5830 
L 3272 5196 
L 2638 5196 
L 2638 5830 
z
M 1416 5830 
L 2050 5830 
L 2050 5196 
L 1416 5196 
L 1416 5830 
z
" id="DejaVuSans-dc" transform="scale(0.015625)"/>
      </defs>
      <use xlink:href="#DejaVuSans-41"/>
      <use x="68.408203" xlink:href="#DejaVuSans-72"/>
      <use x="109.521484" xlink:href="#DejaVuSans-61"/>
      <use x="170.800781" xlink:href="#DejaVuSans-62"/>
      <use x="234.277344" xlink:href="#DejaVuSans-61"/>
      <use x="295.556641" xlink:href="#DejaVuSans-20"/>
      <use x="327.34375" xlink:href="#DejaVuSans-dc"/>
      <use x="400.537109" xlink:href="#DejaVuSans-72"/>
      <use x="439.400391" xlink:href="#DejaVuSans-65"/>
      <use x="500.923828" xlink:href="#DejaVuSans-74"/>
      <use x="540.132812" xlink:href="#DejaVuSans-69"/>
      <use x="567.916016" xlink:href="#DejaVuSans-63"/>
      <use x="622.896484" xlink:href="#DejaVuSans-69"/>
      <use x="650.679688" xlink:href="#DejaVuSans-6c"/>
      <use x="678.462891" xlink:href="#DejaVuSans-65"/>
      <use x="739.986328" xlink:href="#DejaVuSans-72"/>
      <use x="781.099609" xlink:href="#DejaVuSans-69"/>
     </g>
    </g>
   </g>
   <g id="matplotlib.axis_2">
    <g id="ytick_1">
     <g id="line2d_23">
      <defs>
       <path d="M 0 0 
L -3.5 0 
" id="m9b2c629f38" style="stroke:#000000;stroke-width:0.8;"/>
      </defs>
      <g>
       <use style="stroke:#000000;stroke-width:0.8;" x="405" xlink:href="#m9b2c629f38" y="1602"/>
      </g>
     </g>
     <g id="text_24">
      <!-- 0 -->
      <g transform="translate(391.6375 1605.799219)scale(0.1 -0.1)">
       <defs>
        <path d="M 2034 4250 
Q 1547 4250 1301 3770 
Q 1056 3291 1056 2328 
Q 1056 1369 1301 889 
Q 1547 409 2034 409 
Q 2525 409 2770 889 
Q 3016 1369 3016 2328 
Q 3016 3291 2770 3770 
Q 2525 4250 2034 4250 
z
M 2034 4750 
Q 2819 4750 3233 4129 
Q 3647 3509 3647 2328 
Q 3647 1150 3233 529 
Q 2819 -91 2034 -91 
Q 1250 -91 836 529 
Q 422 1150 422 2328 
Q 422 3509 836 4129 
Q 1250 4750 2034 4750 
z
" id="DejaVuSans-30" transform="scale(0.015625)"/>
       </defs>
       <use xlink:href="#DejaVuSans-30"/>
      </g>
     </g>
    </g>
    <g id="ytick_2">
     <g id="line2d_24">
      <g>
       <use style="stroke:#000000;stroke-width:0.8;" x="405" xlink:href="#m9b2c629f38" y="1395.75"/>
      </g>
     </g>
     <g id="text_25">
      <!-- 5 -->
      <g transform="translate(391.6375 1399.549219)scale(0.1 -0.1)">
       <defs>
        <path d="M 691 4666 
L 3169 4666 
L 3169 4134 
L 1269 4134 
L 1269 2991 
Q 1406 3038 1543 3061 
Q 1681 3084 1819 3084 
Q 2600 3084 3056 2656 
Q 3513 2228 3513 1497 
Q 3513 744 3044 326 
Q 2575 -91 1722 -91 
Q 1428 -91 1123 -41 
Q 819 9 494 109 
L 494 744 
Q 775 591 1075 516 
Q 1375 441 1709 441 
Q 2250 441 2565 725 
Q 2881 1009 2881 1497 
Q 2881 1984 2565 2268 
Q 2250 2553 1709 2553 
Q 1456 2553 1204 2497 
Q 953 2441 691 2322 
L 691 4666 
z
" id="DejaVuSans-35" transform="scale(0.015625)"/>
       </defs>
       <use xlink:href="#DejaVuSans-35"/>
      </g>
     </g>
    </g>
    <g id="ytick_3">
     <g id="line2d_25">
      <g>
       <use style="stroke:#000000;stroke-width:0.8;" x="405" xlink:href="#m9b2c629f38" y="1189.5"/>
      </g>
     </g>
     <g id="text_26">
      <!-- 10 -->
      <g transform="translate(385.275 1193.299219)scale(0.1 -0.1)">
       <defs>
        <path d="M 794 531 
L 1825 531 
L 1825 4091 
L 703 3866 
L 703 4441 
L 1819 4666 
L 2450 4666 
L 2450 531 
L 3481 531 
L 3481 0 
L 794 0 
L 794 531 
z
" id="DejaVuSans-31" transform="scale(0.015625)"/>
       </defs>
       <use xlink:href="#DejaVuSans-31"/>
       <use x="63.623047" xlink:href="#DejaVuSans-30"/>
      </g>
     </g>
    </g>
    <g id="ytick_4">
     <g id="line2d_26">
      <g>
       <use style="stroke:#000000;stroke-width:0.8;" x="405" xlink:href="#m9b2c629f38" y="983.25"/>
      </g>
     </g>
     <g id="text_27">
      <!-- 15 -->
      <g transform="translate(385.275 987.049219)scale(0.1 -0.1)">
       <use xlink:href="#DejaVuSans-31"/>
       <use x="63.623047" xlink:href="#DejaVuSans-35"/>
      </g>
     </g>
    </g>
    <g id="ytick_5">
     <g id="line2d_27">
      <g>
       <use style="stroke:#000000;stroke-width:0.8;" x="405" xlink:href="#m9b2c629f38" y="777"/>
      </g>
     </g>
     <g id="text_28">
      <!-- 20 -->
      <g transform="translate(385.275 780.799219)scale(0.1 -0.1)">
       <defs>
        <path d="M 1228 531 
L 3431 531 
L 3431 0 
L 469 0 
L 469 531 
Q 828 903 1448 1529 
Q 2069 2156 2228 2338 
Q 2531 2678 2651 2914 
Q 2772 3150 2772 3378 
Q 2772 3750 2511 3984 
Q 2250 4219 1831 4219 
Q 1534 4219 1204 4116 
Q 875 4013 500 3803 
L 500 4441 
Q 881 4594 1212 4672 
Q 1544 4750 1819 4750 
Q 2544 4750 2975 4387 
Q 3406 4025 3406 3419 
Q 3406 3131 3298 2873 
Q 3191 2616 2906 2266 
Q 2828 2175 2409 1742 
Q 1991 1309 1228 531 
z
" id="DejaVuSans-32" transform="scale(0.015625)"/>
       </defs>
       <use xlink:href="#DejaVuSans-32"/>
       <use x="63.623047" xlink:href="#DejaVuSans-30"/>
      </g>
     </g>
    </g>
    <g id="ytick_6">
     <g id="line2d_28">
      <g>
       <use style="stroke:#000000;stroke-width:0.8;" x="405" xlink:href="#m9b2c629f38" y="570.75"/>
      </g>
     </g>
     <g id="text_29">
      <!-- 25 -->
      <g transform="translate(385.275 574.549219)scale(0.1 -0.1)">
       <use xlink:href="#DejaVuSans-32"/>
       <use x="63.623047" xlink:href="#DejaVuSans-35"/>
      </g>
     </g>
    </g>
    <g id="ytick_7">
     <g id="line2d_29">
      <g>
       <use style="stroke:#000000;stroke-width:0.8;" x="405" xlink:href="#m9b2c629f38" y="364.5"/>
      </g>
     </g>
     <g id="text_30">
      <!-- 30 -->
      <g transform="translate(385.275 368.299219)scale(0.1 -0.1)">
       <defs>
        <path d="M 2597 2516 
Q 3050 2419 3304 2112 
Q 3559 1806 3559 1356 
Q 3559 666 3084 287 
Q 2609 -91 1734 -91 
Q 1441 -91 1130 -33 
Q 819 25 488 141 
L 488 750 
Q 750 597 1062 519 
Q 1375 441 1716 441 
Q 2309 441 2620 675 
Q 2931 909 2931 1356 
Q 2931 1769 2642 2001 
Q 2353 2234 1838 2234 
L 1294 2234 
L 1294 2753 
L 1863 2753 
Q 2328 2753 2575 2939 
Q 2822 3125 2822 3475 
Q 2822 3834 2567 4026 
Q 2313 4219 1838 4219 
Q 1578 4219 1281 4162 
Q 984 4106 628 3988 
L 628 4550 
Q 988 4650 1302 4700 
Q 1616 4750 1894 4750 
Q 2613 4750 3031 4423 
Q 3450 4097 3450 3541 
Q 3450 3153 3228 2886 
Q 3006 2619 2597 2516 
z
" id="DejaVuSans-33" transform="scale(0.015625)"/>
       </defs>
       <use xlink:href="#DejaVuSans-33"/>
       <use x="63.623047" xlink:href="#DejaVuSans-30"/>
      </g>
     </g>
    </g>
    <g id="text_31">
     <!-- Araba Saylar -->
     <g transform="translate(375.035937 1013.554688)rotate(-90)scale(0.3 -0.3)">
      <defs>
       <path d="M 3425 4513 
L 3425 3897 
Q 3066 4069 2747 4153 
Q 2428 4238 2131 4238 
Q 1616 4238 1336 4038 
Q 1056 3838 1056 3469 
Q 1056 3159 1242 3001 
Q 1428 2844 1947 2747 
L 2328 2669 
Q 3034 2534 3370 2195 
Q 3706 1856 3706 1288 
Q 3706 609 3251 259 
Q 2797 -91 1919 -91 
Q 1588 -91 1214 -16 
Q 841 59 441 206 
L 441 856 
Q 825 641 1194 531 
Q 1563 422 1919 422 
Q 2459 422 2753 634 
Q 3047 847 3047 1241 
Q 3047 1584 2836 1778 
Q 2625 1972 2144 2069 
L 1759 2144 
Q 1053 2284 737 2584 
Q 422 2884 422 3419 
Q 422 4038 858 4394 
Q 1294 4750 2059 4750 
Q 2388 4750 2728 4690 
Q 3069 4631 3425 4513 
z
" id="DejaVuSans-53" transform="scale(0.015625)"/>
       <path d="M 603 3500 
L 1178 3500 
L 1178 0 
L 603 0 
L 603 3500 
z
M 891 3584 
L 891 3584 
z
" id="DejaVuSans-131" transform="scale(0.015625)"/>
      </defs>
      <use xlink:href="#DejaVuSans-41"/>
      <use x="68.408203" xlink:href="#DejaVuSans-72"/>
      <use x="109.521484" xlink:href="#DejaVuSans-61"/>
      <use x="170.800781" xlink:href="#DejaVuSans-62"/>
      <use x="234.277344" xlink:href="#DejaVuSans-61"/>
      <use x="295.556641" xlink:href="#DejaVuSans-20"/>
      <use x="327.34375" xlink:href="#DejaVuSans-53"/>
      <use x="390.820312" xlink:href="#DejaVuSans-61"/>
      <use x="452.099609" xlink:href="#DejaVuSans-79"/>
      <use x="511.279297" xlink:href="#DejaVuSans-131"/>
      <use x="539.0625" xlink:href="#DejaVuSans-6c"/>
      <use x="566.845703" xlink:href="#DejaVuSans-61"/>
      <use x="628.125" xlink:href="#DejaVuSans-72"/>
      <use x="669.238281" xlink:href="#DejaVuSans-131"/>
     </g>
    </g>
   </g>
   <g id="patch_243">
    <path d="M 405 1602 
L 405 216 
" style="fill:none;stroke:#000000;stroke-linecap:square;stroke-linejoin:miter;stroke-width:0.8;"/>
   </g>
   <g id="patch_244">
    <path d="M 2916 1602 
L 2916 216 
" style="fill:none;stroke:#000000;stroke-linecap:square;stroke-linejoin:miter;stroke-width:0.8;"/>
   </g>
   <g id="patch_245">
    <path d="M 405 1602 
L 2916 1602 
" style="fill:none;stroke:#000000;stroke-linecap:square;stroke-linejoin:miter;stroke-width:0.8;"/>
   </g>
   <g id="patch_246">
    <path d="M 405 216 
L 2916 216 
" style="fill:none;stroke:#000000;stroke-linecap:square;stroke-linejoin:miter;stroke-width:0.8;"/>
   </g>
   <g id="text_32">
    <!-- 7. SORU -->
    <g transform="translate(1598.690625 209.760937)scale(0.3 -0.3)">
     <defs>
      <path d="M 525 4666 
L 3525 4666 
L 3525 4397 
L 1831 0 
L 1172 0 
L 2766 4134 
L 525 4134 
L 525 4666 
z
" id="DejaVuSans-37" transform="scale(0.015625)"/>
      <path d="M 684 794 
L 1344 794 
L 1344 0 
L 684 0 
L 684 794 
z
" id="DejaVuSans-2e" transform="scale(0.015625)"/>
      <path d="M 2522 4238 
Q 1834 4238 1429 3725 
Q 1025 3213 1025 2328 
Q 1025 1447 1429 934 
Q 1834 422 2522 422 
Q 3209 422 3611 934 
Q 4013 1447 4013 2328 
Q 4013 3213 3611 3725 
Q 3209 4238 2522 4238 
z
M 2522 4750 
Q 3503 4750 4090 4092 
Q 4678 3434 4678 2328 
Q 4678 1225 4090 567 
Q 3503 -91 2522 -91 
Q 1538 -91 948 565 
Q 359 1222 359 2328 
Q 359 3434 948 4092 
Q 1538 4750 2522 4750 
z
" id="DejaVuSans-4f" transform="scale(0.015625)"/>
      <path d="M 2841 2188 
Q 3044 2119 3236 1894 
Q 3428 1669 3622 1275 
L 4263 0 
L 3584 0 
L 2988 1197 
Q 2756 1666 2539 1819 
Q 2322 1972 1947 1972 
L 1259 1972 
L 1259 0 
L 628 0 
L 628 4666 
L 2053 4666 
Q 2853 4666 3247 4331 
Q 3641 3997 3641 3322 
Q 3641 2881 3436 2590 
Q 3231 2300 2841 2188 
z
M 1259 4147 
L 1259 2491 
L 2053 2491 
Q 2509 2491 2742 2702 
Q 2975 2913 2975 3322 
Q 2975 3731 2742 3939 
Q 2509 4147 2053 4147 
L 1259 4147 
z
" id="DejaVuSans-52" transform="scale(0.015625)"/>
      <path d="M 556 4666 
L 1191 4666 
L 1191 1831 
Q 1191 1081 1462 751 
Q 1734 422 2344 422 
Q 2950 422 3222 751 
Q 3494 1081 3494 1831 
L 3494 4666 
L 4128 4666 
L 4128 1753 
Q 4128 841 3676 375 
Q 3225 -91 2344 -91 
Q 1459 -91 1007 375 
Q 556 841 556 1753 
L 556 4666 
z
" id="DejaVuSans-55" transform="scale(0.015625)"/>
     </defs>
     <use xlink:href="#DejaVuSans-37"/>
     <use x="63.623047" xlink:href="#DejaVuSans-2e"/>
     <use x="95.410156" xlink:href="#DejaVuSans-20"/>
     <use x="127.197266" xlink:href="#DejaVuSans-53"/>
     <use x="190.673828" xlink:href="#DejaVuSans-4f"/>
     <use x="269.384766" xlink:href="#DejaVuSans-52"/>
     <use x="338.867188" xlink:href="#DejaVuSans-55"/>
    </g>
   </g>
   <g id="legend_1">
    <g id="patch_247">
     <path d="M 1400.056875 283.24125 
L 1920.943125 283.24125 
Q 1924.543125 283.24125 1924.543125 279.64125 
L 1924.543125 228.6 
Q 1924.543125 225 1920.943125 225 
L 1400.056875 225 
Q 1396.456875 225 1396.456875 228.6 
L 1396.456875 279.64125 
Q 1396.456875 283.24125 1400.056875 283.24125 
z
" style="fill:#ffffff;opacity:0.8;stroke:#cccccc;stroke-linejoin:miter;"/>
    </g>
    <g id="patch_248">
     <path d="M 1403.656875 245.877187 
L 1439.656875 245.877187 
L 1439.656875 233.277187 
L 1403.656875 233.277187 
z
" style="fill:#ff0000;"/>
    </g>
    <g id="text_33">
     <!-- Markann Toplam Ara Says -->
     <g transform="translate(1454.056875 245.877187)scale(0.18 -0.18)">
      <defs>
       <path d="M 628 4666 
L 1569 4666 
L 2759 1491 
L 3956 4666 
L 4897 4666 
L 4897 0 
L 4281 0 
L 4281 4097 
L 3078 897 
L 2444 897 
L 1241 4097 
L 1241 0 
L 628 0 
L 628 4666 
z
" id="DejaVuSans-4d" transform="scale(0.015625)"/>
       <path d="M -19 4666 
L 3928 4666 
L 3928 4134 
L 2272 4134 
L 2272 0 
L 1638 0 
L 1638 4134 
L -19 4134 
L -19 4666 
z
" id="DejaVuSans-54" transform="scale(0.015625)"/>
       <path d="M 3122 3366 
L 3122 2828 
Q 2878 2963 2633 3030 
Q 2388 3097 2138 3097 
Q 1578 3097 1268 2742 
Q 959 2388 959 1747 
Q 959 1106 1268 751 
Q 1578 397 2138 397 
Q 2388 397 2633 464 
Q 2878 531 3122 666 
L 3122 134 
Q 2881 22 2623 -34 
Q 2366 -91 2075 -91 
Q 1284 -91 818 406 
Q 353 903 353 1747 
Q 353 2603 823 3093 
Q 1294 3584 2113 3584 
Q 2378 3584 2631 3529 
Q 2884 3475 3122 3366 
z
M 2311 0 
Q 2482 -194 2566 -358 
Q 2651 -522 2651 -672 
Q 2651 -950 2463 -1092 
Q 2276 -1234 1907 -1234 
Q 1764 -1234 1628 -1215 
Q 1492 -1197 1357 -1159 
L 1357 -750 
Q 1464 -803 1579 -826 
Q 1695 -850 1842 -850 
Q 2026 -850 2120 -775 
Q 2214 -700 2214 -556 
Q 2214 -463 2146 -327 
Q 2079 -191 1939 0 
L 2311 0 
z
" id="DejaVuSans-e7" transform="scale(0.015625)"/>
      </defs>
      <use xlink:href="#DejaVuSans-4d"/>
      <use x="86.279297" xlink:href="#DejaVuSans-61"/>
      <use x="147.558594" xlink:href="#DejaVuSans-72"/>
      <use x="188.671875" xlink:href="#DejaVuSans-6b"/>
      <use x="244.832031" xlink:href="#DejaVuSans-61"/>
      <use x="306.111328" xlink:href="#DejaVuSans-6e"/>
      <use x="369.490234" xlink:href="#DejaVuSans-131"/>
      <use x="397.273438" xlink:href="#DejaVuSans-6e"/>
      <use x="460.652344" xlink:href="#DejaVuSans-20"/>
      <use x="492.439453" xlink:href="#DejaVuSans-54"/>
      <use x="536.523438" xlink:href="#DejaVuSans-6f"/>
      <use x="597.705078" xlink:href="#DejaVuSans-70"/>
      <use x="661.181641" xlink:href="#DejaVuSans-6c"/>
      <use x="688.964844" xlink:href="#DejaVuSans-61"/>
      <use x="750.244141" xlink:href="#DejaVuSans-6d"/>
      <use x="847.65625" xlink:href="#DejaVuSans-20"/>
      <use x="879.443359" xlink:href="#DejaVuSans-41"/>
      <use x="947.851562" xlink:href="#DejaVuSans-72"/>
      <use x="988.964844" xlink:href="#DejaVuSans-61"/>
      <use x="1050.244141" xlink:href="#DejaVuSans-e7"/>
      <use x="1105.224609" xlink:href="#DejaVuSans-20"/>
      <use x="1137.011719" xlink:href="#DejaVuSans-53"/>
      <use x="1200.488281" xlink:href="#DejaVuSans-61"/>
      <use x="1261.767578" xlink:href="#DejaVuSans-79"/>
      <use x="1320.947266" xlink:href="#DejaVuSans-131"/>
      <use x="1348.730469" xlink:href="#DejaVuSans-73"/>
      <use x="1400.830078" xlink:href="#DejaVuSans-131"/>
     </g>
    </g>
    <g id="patch_249">
     <path d="M 1403.656875 272.297812 
L 1439.656875 272.297812 
L 1439.656875 259.697812 
L 1403.656875 259.697812 
z
" style="fill:#800080;"/>
    </g>
    <g id="text_34">
     <!-- Hatchback Says -->
     <g transform="translate(1454.056875 272.297812)scale(0.18 -0.18)">
      <defs>
       <path d="M 628 4666 
L 1259 4666 
L 1259 2753 
L 3553 2753 
L 3553 4666 
L 4184 4666 
L 4184 0 
L 3553 0 
L 3553 2222 
L 1259 2222 
L 1259 0 
L 628 0 
L 628 4666 
z
" id="DejaVuSans-48" transform="scale(0.015625)"/>
      </defs>
      <use xlink:href="#DejaVuSans-48"/>
      <use x="75.195312" xlink:href="#DejaVuSans-61"/>
      <use x="136.474609" xlink:href="#DejaVuSans-74"/>
      <use x="175.683594" xlink:href="#DejaVuSans-63"/>
      <use x="230.664062" xlink:href="#DejaVuSans-68"/>
      <use x="294.042969" xlink:href="#DejaVuSans-62"/>
      <use x="357.519531" xlink:href="#DejaVuSans-61"/>
      <use x="418.798828" xlink:href="#DejaVuSans-63"/>
      <use x="473.779297" xlink:href="#DejaVuSans-6b"/>
      <use x="531.689453" xlink:href="#DejaVuSans-20"/>
      <use x="563.476562" xlink:href="#DejaVuSans-53"/>
      <use x="626.953125" xlink:href="#DejaVuSans-61"/>
      <use x="688.232422" xlink:href="#DejaVuSans-79"/>
      <use x="747.412109" xlink:href="#DejaVuSans-131"/>
      <use x="775.195312" xlink:href="#DejaVuSans-73"/>
      <use x="827.294922" xlink:href="#DejaVuSans-131"/>
     </g>
    </g>
    <g id="patch_250">
     <path d="M 1747.20375 245.877187 
L 1783.20375 245.877187 
L 1783.20375 233.277187 
L 1747.20375 233.277187 
z
" style="fill:#00ffff;"/>
    </g>
    <g id="text_35">
     <!-- Sedan Says -->
     <g transform="translate(1797.60375 245.877187)scale(0.18 -0.18)">
      <use xlink:href="#DejaVuSans-53"/>
      <use x="63.476562" xlink:href="#DejaVuSans-65"/>
      <use x="125" xlink:href="#DejaVuSans-64"/>
      <use x="188.476562" xlink:href="#DejaVuSans-61"/>
      <use x="249.755859" xlink:href="#DejaVuSans-6e"/>
      <use x="313.134766" xlink:href="#DejaVuSans-20"/>
      <use x="344.921875" xlink:href="#DejaVuSans-53"/>
      <use x="408.398438" xlink:href="#DejaVuSans-61"/>
      <use x="469.677734" xlink:href="#DejaVuSans-79"/>
      <use x="528.857422" xlink:href="#DejaVuSans-131"/>
      <use x="556.640625" xlink:href="#DejaVuSans-73"/>
      <use x="608.740234" xlink:href="#DejaVuSans-131"/>
     </g>
    </g>
    <g id="patch_251">
     <path d="M 1747.20375 272.297812 
L 1783.20375 272.297812 
L 1783.20375 259.697812 
L 1747.20375 259.697812 
z
" style="fill:#008000;"/>
    </g>
    <g id="text_36">
     <!-- Wagon Says -->
     <g transform="translate(1797.60375 272.297812)scale(0.18 -0.18)">
      <defs>
       <path d="M 213 4666 
L 850 4666 
L 1831 722 
L 2809 4666 
L 3519 4666 
L 4500 722 
L 5478 4666 
L 6119 4666 
L 4947 0 
L 4153 0 
L 3169 4050 
L 2175 0 
L 1381 0 
L 213 4666 
z
" id="DejaVuSans-57" transform="scale(0.015625)"/>
      </defs>
      <use xlink:href="#DejaVuSans-57"/>
      <use x="92.501953" xlink:href="#DejaVuSans-61"/>
      <use x="153.78125" xlink:href="#DejaVuSans-67"/>
      <use x="217.257812" xlink:href="#DejaVuSans-6f"/>
      <use x="278.439453" xlink:href="#DejaVuSans-6e"/>
      <use x="341.818359" xlink:href="#DejaVuSans-20"/>
      <use x="373.605469" xlink:href="#DejaVuSans-53"/>
      <use x="437.082031" xlink:href="#DejaVuSans-61"/>
      <use x="498.361328" xlink:href="#DejaVuSans-79"/>
      <use x="557.541016" xlink:href="#DejaVuSans-131"/>
      <use x="585.324219" xlink:href="#DejaVuSans-73"/>
      <use x="637.423828" xlink:href="#DejaVuSans-131"/>
     </g>
    </g>
   </g>
  </g>
 </g>
 <defs>
  <clipPath id="p741ba03ce9">
   <rect height="1386" width="2511" x="405" y="216"/>
  </clipPath>
 </defs>
</svg>
